<?xml version="1.0" encoding="UTF-8"?>
<svg version="1.1" xmlns="http://www.w3.org/2000/svg" width="637" height="392">
<path d="M0 0 C0.9197951 -0.00235223 1.8395902 -0.00470446 2.78725788 -0.00712797 C5.89219262 -0.01382411 8.99708558 -0.01335956 12.10202694 -0.01294994 C14.34153159 -0.01624818 16.58103564 -0.01997367 18.82053894 -0.02409142 C24.99272183 -0.03412406 31.164895 -0.03783025 37.33708489 -0.04048073 C43.30451951 -0.04397989 49.27194737 -0.05212683 55.23937739 -0.06002467 C71.23038734 -0.0808722 87.22139914 -0.09133947 103.21241952 -0.10015428 C110.77710698 -0.10436046 118.34179365 -0.1095825 125.90648044 -0.11483881 C151.80020317 -0.13272952 177.69392613 -0.14772552 203.58765411 -0.155159 C205.21338427 -0.15563375 206.83911443 -0.15610964 208.46484458 -0.15658666 C209.67417136 -0.15694122 209.67417136 -0.15694122 210.90792899 -0.15730295 C214.99264275 -0.15850415 219.07735652 -0.1597196 223.16207027 -0.16094494 C224.37800707 -0.16130516 224.37800707 -0.16130516 225.61850824 -0.16167267 C251.89989442 -0.1695653 278.18123546 -0.19299611 304.46260192 -0.22550088 C332.24722484 -0.25980215 360.03182135 -0.27951043 387.8164658 -0.28280324 C390.86690328 -0.28322078 393.91734074 -0.28370034 396.96777821 -0.28422642 C397.71888441 -0.28434961 398.46999062 -0.2844728 399.24385762 -0.28459973 C411.32931976 -0.28693141 423.41472947 -0.30258963 435.50017293 -0.32306826 C447.64966154 -0.34332869 459.7990872 -0.34880255 471.94858957 -0.33929763 C478.53012325 -0.33454216 485.11152043 -0.3366911 491.69303417 -0.35605907 C497.71914133 -0.37363958 503.74495349 -0.37273428 509.77106356 -0.35716178 C511.9501329 -0.35477796 514.12922239 -0.35914919 516.30826087 -0.37099043 C532.14240254 -0.45170005 544.02235064 0.60668957 555.94893551 11.94672108 C564.53063403 20.96477715 566.19397068 31.23598663 566.1831274 43.22163868 C566.18758409 44.75892947 566.18758409 44.75892947 566.1921308 46.32727665 C566.20081205 49.76626963 566.20232559 53.20522777 566.20381832 56.64423084 C566.20844696 59.10822594 566.21347169 61.57222033 566.21886349 64.03621387 C566.23198656 70.73485832 566.23846941 77.43348915 566.24287415 84.13214326 C566.24563988 88.31850037 566.2498779 92.50485519 566.25437832 96.69121075 C566.26657018 108.29190297 566.27686885 119.89259336 566.28025341 131.49329185 C566.28047298 132.23543554 566.28069254 132.97757923 566.28091876 133.74221211 C566.28113704 134.48609299 566.28135532 135.22997388 566.28158021 135.9963966 C566.28202367 137.5036825 566.28247023 139.01096839 566.28291988 140.51825428 C566.28314131 141.26591397 566.28336274 142.01357366 566.28359088 142.7838897 C566.28753536 154.88729697 566.30497903 166.9906439 566.32827941 179.09402788 C566.35203239 191.53342302 566.3644571 203.97278794 566.36562133 216.41220611 C566.36653601 223.39114222 566.37223568 230.36999976 566.39044094 237.34891415 C566.40751641 243.91771924 566.4090651 250.48640202 566.40030193 257.05523205 C566.39953283 259.46097303 566.40385748 261.86672209 566.41376019 264.27244282 C566.5370599 296.10344135 566.5370599 296.10344135 554.96846676 308.32562733 C546.4496949 316.39839019 538.0595345 319.29862285 526.48862934 319.24774647 C525.17433387 319.24796524 525.17433387 319.24796524 523.83348697 319.24818844 C520.87685926 319.24748363 517.92029257 319.23961746 514.9636755 319.23187733 C512.83070396 319.23000052 510.69773198 319.2285868 508.56475985 319.22759819 C503.91649244 319.22450451 499.2682432 319.21826715 494.61998272 319.2096777 C487.05774062 319.19577737 479.49550152 319.18879201 471.93324947 319.18291187 C463.79173428 319.17626856 455.65022113 319.16918361 447.50870872 319.15972519 C428.05257491 319.13732867 408.5964776 319.12934542 389.14033143 319.13219188 C386.93287668 319.13251299 384.72542191 319.13279392 382.51796715 319.13306487 C371.26511995 319.13447676 360.01227285 319.13648091 348.75942576 319.13854733 C337.16520637 319.14066339 325.57098712 319.14211222 313.97676754 319.14252186 C312.81893347 319.14257455 312.81893347 319.14257455 311.63770881 319.1426283 C286.61035481 319.1435743 261.58310846 319.11784969 236.55578694 319.07936051 C210.82653799 319.03995384 185.09743647 319.03024252 159.36816737 319.05681428 C155.73410631 319.06054719 152.100045 319.06392636 148.46598339 319.06708241 C147.75077167 319.06771225 147.03555996 319.06834209 146.29867516 319.06899102 C134.78942813 319.07822521 123.28044775 319.05593512 111.77125699 319.02165132 C100.20191942 318.98781913 88.63306458 318.98722224 77.06369464 319.01839167 C70.7959306 319.03427991 64.52905924 319.03545675 58.26137066 318.99745464 C52.52291387 318.96297206 46.78605358 318.96994363 41.04764576 319.0098505 C38.97222531 319.01696427 36.89668513 319.0088679 34.82140152 318.98399639 C21.98570418 318.53306904 21.98570418 318.53306904 11.05262852 324.42256641 C9.68819298 325.96903815 8.35056323 327.53963177 7.04268551 329.13422108 C5.39788199 330.65816306 3.73321127 332.16116288 2.04268551 333.63422108 C1.22670895 334.3689867 0.41073238 335.10375233 -0.42997074 335.86078358 C-2.1862471 337.44061795 -3.94418107 339.01861075 -5.70340824 340.59515858 C-7.03565434 341.79011951 -7.03565434 341.79011951 -8.39481449 343.00922108 C-9.5994434 344.08816639 -9.5994434 344.08816639 -10.82840824 345.18890858 C-12.92478221 347.05662128 -12.92478221 347.05662128 -14.61747074 348.89203358 C-15.95731449 350.13422108 -15.95731449 350.13422108 -17.95731449 350.13422108 C-18.28731449 351.12422108 -18.61731449 352.11422108 -18.95731449 353.13422108 C-20.95062291 354.47753762 -22.95116315 355.81016119 -24.95731449 357.13422108 C-25.98054885 358.44980811 -26.98858417 359.77799862 -27.95731449 361.13422108 C-28.61731449 361.13422108 -29.27731449 361.13422108 -29.95731449 361.13422108 C-29.95731449 361.79422108 -29.95731449 362.45422108 -29.95731449 363.13422108 C-31.63700199 364.86078358 -31.63700199 364.86078358 -33.83231449 366.75922108 C-34.9112598 367.70668201 -34.9112598 367.70668201 -36.01200199 368.67328358 C-37.95731449 370.13422108 -37.95731449 370.13422108 -39.95731449 370.13422108 C-41.0016173 367.00131264 -41.07997143 364.83817074 -41.0759182 361.55116081 C-41.07689265 360.38216714 -41.07786709 359.21317347 -41.07887107 358.00875574 C-41.07479576 356.71832108 -41.07072045 355.42788641 -41.06652164 354.09834766 C-41.06569174 352.71837808 -41.06529265 351.33840817 -41.06528872 349.95843834 C-41.06395336 346.1574396 -41.05624739 342.35647611 -41.04747331 338.55548823 C-41.03907134 334.45916234 -41.03639891 330.36283196 -41.03287601 326.26649952 C-41.02302413 316.36769779 -41.00338805 306.4689244 -40.98261526 296.57014051 C-40.97303271 291.90799397 -40.96445952 287.24584558 -40.95576382 282.58369732 C-40.92645464 267.08335272 -40.8946454 251.58301635 -40.85554314 236.0826931 C-40.84542273 232.05926041 -40.83531133 228.0358277 -40.82523441 224.01239491 C-40.82272754 223.01239257 -40.82022066 222.01239024 -40.81763782 220.9820848 C-40.77751138 204.79173933 -40.75431692 188.60141646 -40.73825578 172.41103102 C-40.72149442 155.78608986 -40.6897734 139.16123027 -40.64337176 122.53634495 C-40.61768843 113.20325239 -40.59850104 103.87024622 -40.5959959 94.53711605 C-40.5938106 86.58621363 -40.57801932 78.63548344 -40.54466341 70.68464816 C-40.52806557 66.63050929 -40.51779176 62.57662288 -40.52497005 58.52245045 C-40.53139987 54.80423704 -40.51921279 51.08654741 -40.49276515 47.36842679 C-40.48343849 45.40009511 -40.49350765 43.43170029 -40.50447494 41.46337706 C-40.38961374 30.11021841 -38.07370006 19.49428566 -29.95731449 11.13422108 C-21.12963652 3.10905929 -11.747735 -0.02028749 0 0 Z " fill="#02575D" transform="translate(59.95731449127197,12.865778923034668)"/>
<path d="M0 0 C12.54 0 25.08 0 38 0 C39.32 2.97 40.64 5.94 42 9 C43.24164888 11.6711102 44.48940686 14.33792766 45.75 17 C46.44273861 18.46743362 47.13544593 19.93488202 47.828125 21.40234375 C48.18197266 22.15112793 48.53582031 22.89991211 48.90039062 23.67138672 C50.77117307 27.63309254 52.63522464 31.5979641 54.5 35.5625 C55.17705334 37.0013162 55.85413383 38.44011962 56.53125 39.87890625 C57.25828125 41.42384766 57.25828125 41.42384766 58 43 C59.83450839 39.18806436 61.66755492 35.37542791 63.5 31.5625 C64.04374268 30.43134766 64.58748535 29.30019531 65.14770508 28.13476562 C68.70149729 20.73221278 72.2257302 13.31700923 75.67578125 5.86547852 C77.89343265 1.10656735 77.89343265 1.10656735 79 0 C81.6662603 -0.08855161 84.30647114 -0.11524673 86.97265625 -0.09765625 C87.77029892 -0.0962413 88.56794159 -0.09482635 89.38975525 -0.09336853 C91.94737435 -0.08775316 94.50490718 -0.07519812 97.0625 -0.0625 C98.79231645 -0.05748698 100.52213426 -0.05292373 102.25195312 -0.04882812 C106.50133553 -0.03777875 110.75065312 -0.02050386 115 0 C114.08653147 4.07095264 112.32998107 7.55716946 110.4375 11.25 C109.70179763 12.70441429 108.96612122 14.15884171 108.23046875 15.61328125 C107.48702623 17.07554476 106.74353837 18.53778522 106 20 C100.59411156 30.67246394 95.36785648 41.42489765 90.21191406 52.22045898 C82.84918483 67.62841764 82.84918483 67.62841764 79.75 72.6875 C77.90255046 76.18445806 77.48502493 77.18596589 78 81 C79.21271635 83.70676783 80.72014825 86.21216878 82.25 88.75 C83.08761851 90.18446016 83.92228866 91.62064628 84.75390625 93.05859375 C85.14980957 93.7429248 85.54571289 94.42725586 85.95361328 95.13232422 C87.53513721 97.95515623 88.79595937 100.8731617 90.0390625 103.85546875 C91.67329948 107.50260736 93.68532912 110.94609242 95.625 114.4375 C97.29189767 117.54399112 98.61903893 120.75774358 100 124 C100.8203626 125.48639957 101.65470705 126.96513513 102.5 128.4375 C104.09729334 131.24702488 105.43291565 133.95032144 106.5 137 C108.51747309 142.75268042 111.6289002 147.9433503 115 153 C115.33 154.98 115.66 156.96 116 159 C104.12 159 92.24 159 80 159 C77.69 153.72 75.38 148.44 73 143 C71.4651998 139.53822669 69.92754945 136.07871779 68.375 132.625 C67.99674072 131.78138916 67.61848145 130.93777832 67.22875977 130.06860352 C64.89347992 124.889939 62.46633421 119.78411724 59.77734375 114.77734375 C59 113 59 113 59 110 C58.34 110 57.68 110 57 110 C56.773125 110.763125 56.54625 111.52625 56.3125 112.3125 C54.89489889 116.29528407 53.18641297 120.05571462 51.4140625 123.890625 C49.92926247 127.1555444 48.52249672 130.44682593 47.125 133.75 C44.63559028 139.60172934 42.00113977 145.37063466 39.27197266 151.11425781 C38.03658179 153.72348244 36.9142098 156.25737061 36 159 C23.79 159 11.58 159 -1 159 C1.24776956 152.25669131 1.24776956 152.25669131 2.8046875 149.23046875 C3.30548828 148.24614868 3.30548828 148.24614868 3.81640625 147.24194336 C4.16574219 146.56397705 4.51507813 145.88601074 4.875 145.1875 C8.08652023 138.88317212 8.08652023 138.88317212 11 132.4375 C13.0645737 127.63250561 15.58399768 123.07242827 18.09570312 118.48999023 C20.31391421 114.41300042 22.17714877 110.27307944 24 106 C24.97520111 104.1740375 25.97411273 102.3604743 27 100.5625 C28.78991284 97.33977517 30.39654136 94.22613297 31.625 90.75 C32.67236822 87.89354121 33.6269997 85.84083672 35.1875 83.3125 C37.10409866 79.80975073 37.46692042 78.84394952 37 75 C35.89627639 72.3825983 34.75311102 69.94242817 33.4375 67.4375 C33.07688477 66.73222168 32.71626953 66.02694336 32.34472656 65.30029297 C29.60017336 59.99038832 26.58934292 54.86227711 23.51953125 49.734375 C21.66904003 46.40444222 20.35611385 43.00092691 19.03125 39.4375 C17.51291209 35.8487013 15.43125798 32.6655053 13.37109375 29.3671875 C11.80810399 26.66869237 10.8379438 23.99975041 9.84375 21.05859375 C8.47640011 17.72251324 6.47835309 14.78874961 4.5 11.78515625 C3 9 3 9 0 0 Z " fill="#FAD942" transform="translate(442,97)"/>
<path d="M0 0 C28.38 0 56.76 0 86 0 C86 9.57 86 19.14 86 29 C68.18 29 50.36 29 32 29 C32 40.88 32 52.76 32 65 C47.51 65 63.02 65 79 65 C79 74.57 79 84.14 79 94 C63.82 94 48.64 94 33 94 C33 115.45 33 136.9 33 159 C22.11 159 11.22 159 0 159 C0 106.53 0 54.06 0 0 Z " fill="#FCD941" transform="translate(93,97)"/>
<path d="M0 0 C10.89 0 21.78 0 33 0 C38.24111675 13.62690355 38.24111675 13.62690355 40 20 C41.09592285 23.12298949 42.26805409 26.21641744 43.4375 29.3125 C45.637396 35.19811228 47.73208627 41.06020584 49.4453125 47.109375 C50.13937266 49.47504485 51.02017827 51.73887294 52 54 C54.69913208 48.97402992 56.61462729 44.23036215 58.16015625 38.75 C59.43403482 34.57878832 61.0791199 30.5641954 62.67578125 26.5078125 C64.52989234 21.59633239 66.11366976 16.61164302 67.69140625 11.60546875 C69.14274345 7.60670984 71.0975567 3.8048866 73 0 C83.56 0 94.12 0 105 0 C102.65738743 7.02783772 100.38830264 13.79342391 97.5 20.5625 C95.13757148 26.18966041 92.93017767 31.83324661 90.8984375 37.58984375 C90.01056163 39.97166727 89.00447733 42.25606404 87.9375 44.5625 C86.53306248 47.62722218 85.47231527 50.6293107 84.5625 53.875 C83.55971407 57.3927945 82.33159921 60.57785506 80.75 63.875 C77.79994795 70.10687288 75.62270934 76.5742988 73.41113281 83.09521484 C73.1272168 83.92875488 72.84330078 84.76229492 72.55078125 85.62109375 C72.17433472 86.74149048 72.17433472 86.74149048 71.7902832 87.88452148 C71 90 71 90 69.97053528 91.73091125 C68.69308358 94.71756339 68.71890456 97.17420761 68.68115234 100.42089844 C68.66128265 101.72194519 68.64141296 103.02299194 68.62094116 104.36346436 C68.60906559 105.77876618 68.59740268 107.1940698 68.5859375 108.609375 C68.56722203 110.06098528 68.54764833 111.51258473 68.5272522 112.96417236 C68.47596478 116.77811287 68.43632108 120.59208862 68.39910889 124.40618896 C68.35199996 128.98601172 68.2904167 133.56566 68.23126221 138.14533997 C68.14309119 145.09682275 68.0732979 152.0482728 68 159 C57.77 159 47.54 159 37 159 C36.97421875 154.48441406 36.9484375 149.96882812 36.921875 145.31640625 C36.89668232 142.44069994 36.87033111 139.56509631 36.83984375 136.68945312 C36.79165493 132.13386769 36.74755594 127.57852019 36.72900391 123.02270508 C36.71376177 119.3460158 36.67918508 115.66995268 36.63169098 111.99354362 C36.61695439 110.59712125 36.60896345 109.20060944 36.60811615 107.80410957 C36.59804325 99.52018435 35.98073251 93.28830432 32 86 C31.23781163 84.05950879 30.49500427 82.11116791 29.78125 80.15234375 C29.40613281 79.13462891 29.03101563 78.11691406 28.64453125 77.06835938 C27.88025063 74.97767365 27.11723367 72.88652554 26.35546875 70.79492188 C24.7064257 66.32663856 23.06701647 61.97090752 20.84375 57.75390625 C19.1807829 54.57825984 18.33080188 51.58300023 17.5546875 48.09814453 C16.48345618 44.04613663 14.68606113 40.26473658 13 36.4375 C10.61739447 31.00326021 8.56275425 25.73908025 7 20 C6.19417695 17.76074171 5.36116948 15.53106161 4.5 13.3125 C4.0771875 12.21550781 3.654375 11.11851563 3.21875 9.98828125 C2.09278931 7.09193944 2.09278931 7.09193944 0.84375 4.79296875 C0 3 0 3 0 0 Z " fill="#F9D944" transform="translate(192,97)"/>
<path d="M0 0 C11.22 0 22.44 0 34 0 C34.06783918 16.25565915 34.1230527 32.51119663 34.15543652 48.76695824 C34.17087557 56.31555643 34.19190809 63.86406013 34.22631836 71.41259766 C34.25631181 77.99538668 34.27559651 84.57810724 34.28226548 91.1609627 C34.28616099 94.64339913 34.29525334 98.12563976 34.31719017 101.60801315 C34.34153637 105.50482477 34.34196364 109.40144851 34.34057617 113.29833984 C34.351362 114.44058014 34.36214783 115.58282043 34.3732605 116.75967407 C34.32534176 129.23820493 30.66933397 139.07650369 23 149 C19.88275459 151.79577948 16.63678994 153.94299211 13 156 C11.90300781 156.69480469 10.80601562 157.38960937 9.67578125 158.10546875 C-2.00633351 164.74063235 -21.47196638 162.86355054 -34 160 C-36.91952743 158.9776739 -39.40526781 157.67437846 -42 156 C-42.66515625 155.59007812 -43.3303125 155.18015625 -44.015625 154.7578125 C-51.31089184 149.82933071 -56.69787833 142.96719009 -58.65576172 134.29248047 C-59.31934199 129.87331823 -59.2042912 125.45714753 -59.125 121 C-59.08375 117.7 -59.0425 114.4 -59 111 C-49.1 111 -39.2 111 -29 111 C-28.505 116.94 -28.505 116.94 -28 123 C-26.66398477 127.2307149 -25.75397139 128.50269972 -22.0625 130.9375 C-16.96020596 132.78394046 -11.20335849 132.20194538 -6 131 C-3.44801752 129.08026544 -2.23320945 126.91554148 -1 124 C-0.69147952 121.52105501 -0.69147952 121.52105501 -0.7215271 118.8114624 C-0.71036362 117.76260864 -0.69920013 116.71375488 -0.68769836 115.63311768 C-0.68553818 114.4880072 -0.68337799 113.34289673 -0.68115234 112.16308594 C-0.66608391 110.34804565 -0.66608391 110.34804565 -0.65071106 108.49633789 C-0.62512286 105.18259345 -0.60826551 101.86902014 -0.59528303 98.55521679 C-0.57964703 95.09049294 -0.55285832 91.62585577 -0.5272522 88.16119385 C-0.48047268 81.60232253 -0.4437246 75.04343489 -0.41057932 68.48448205 C-0.37235207 61.01652136 -0.3229435 53.54864775 -0.27259517 46.08076048 C-0.16928759 30.72056357 -0.08149947 15.36033045 0 0 Z " fill="#F7D843" transform="translate(335,97)"/>
<path d="M0 0 C10.89 0 21.78 0 33 0 C33 52.47 33 104.94 33 159 C22.11 159 11.22 159 0 159 C0 106.53 0 54.06 0 0 Z " fill="#FCD941" transform="translate(393,97)"/>
<path d="M0 0 C-1.58074564 0.81752303 -3.16471223 1.62881997 -4.75 2.4375 C-6.07257813 3.11619141 -6.07257813 3.11619141 -7.421875 3.80859375 C-12.44646386 6.13056284 -17.12143871 6.14814465 -22.59202003 6.14704514 C-23.91244322 6.15265665 -23.91244322 6.15265665 -25.25954163 6.15838152 C-28.22996791 6.1697743 -31.20036252 6.17406103 -34.17080688 6.17840576 C-36.31360645 6.18511656 -38.45640471 6.19225416 -40.59920156 6.19978356 C-46.50371337 6.21923456 -52.40822533 6.23242595 -58.31275606 6.24458575 C-64.67407501 6.25873176 -71.03537678 6.27853117 -77.39668274 6.29753113 C-92.03708696 6.3400532 -106.67750504 6.37414454 -121.31793365 6.40700389 C-128.54878465 6.42330365 -135.77963244 6.44085431 -143.01048012 6.45855594 C-167.75114259 6.51909683 -192.49180872 6.57752045 -217.23249245 6.62871933 C-218.78556985 6.63193853 -220.33864726 6.6351579 -221.89172467 6.63837744 C-223.44858799 6.64160306 -225.00545131 6.64482854 -226.56231463 6.64805388 C-229.68574882 6.65452533 -232.80918301 6.66100144 -235.93261719 6.66748047 C-237.09426263 6.66988682 -237.09426263 6.66988682 -238.27937566 6.67234178 C-263.4111368 6.72448591 -288.54284547 6.78892168 -313.67455769 6.86070609 C-340.23181825 6.93651733 -366.78908321 7.00148875 -393.34640062 7.05390286 C-396.25877985 7.05969116 -399.17115898 7.06552358 -402.08353806 7.07138824 C-403.15923943 7.07354662 -403.15923943 7.07354662 -404.25667215 7.07574861 C-415.81949031 7.09920345 -427.38225981 7.1325633 -438.94504213 7.16941465 C-450.55441026 7.20616295 -462.1637534 7.23160292 -473.77317168 7.24618712 C-480.06802755 7.25440474 -486.36277399 7.26758523 -492.65758324 7.29369926 C-498.41114393 7.31745199 -504.16455499 7.32755456 -509.91816311 7.32641616 C-512.00825208 7.32847168 -514.09834312 7.33568963 -516.18839462 7.3483735 C-519.01234299 7.36477847 -521.83568858 7.36299093 -524.65966225 7.35631943 C-525.48592011 7.36551897 -526.31217798 7.37471851 -527.16347396 7.38419682 C-529.42836249 7.36733413 -529.42836249 7.36733413 -533 7 C-533.66 6.01 -534.32 5.02 -535 4 C-533.89698272 3.99902319 -532.79396544 3.99804638 -531.65752339 3.99703997 C-483.06226049 3.9538086 -434.46700306 3.90688158 -385.87176514 3.84101868 C-385.13643437 3.84002311 -384.4011036 3.83902754 -383.64349008 3.83800181 C-367.66403117 3.81634492 -351.68457325 3.79402235 -335.70511623 3.77101372 C-327.8691662 3.75973488 -320.03321597 3.74860319 -312.19726562 3.73754883 C-311.41748078 3.73644626 -310.63769593 3.7353437 -309.83428123 3.73420772 C-284.54430076 3.69851832 -259.25432163 3.67255201 -233.96432501 3.65161031 C-207.98266949 3.63004466 -182.00104374 3.59870486 -156.01941556 3.55500887 C-152.35244938 3.54884633 -148.68548302 3.5427959 -145.01851654 3.53681374 C-144.29678168 3.53563285 -143.57504682 3.53445197 -142.83144121 3.53323531 C-131.19815871 3.51448993 -119.56489048 3.50609473 -107.93159473 3.50153876 C-96.24549081 3.49674235 -84.5594504 3.48087371 -72.87337449 3.45433434 C-66.53782054 3.44027332 -60.2023575 3.43116563 -53.86678696 3.43499184 C-48.07344218 3.43838465 -42.28029206 3.42813838 -36.4869872 3.40676448 C-34.38464859 3.40146579 -32.28228992 3.40129362 -30.17995134 3.40660437 C-27.33455121 3.41306325 -24.4898042 3.40130053 -21.64445877 3.38476086 C-20.81749851 3.39103755 -19.99053824 3.39731425 -19.13851857 3.40378115 C-14.71550069 3.35602902 -12.29440349 2.97506741 -9 0 C-2.63414634 -1.31707317 -2.63414634 -1.31707317 0 0 Z " fill="#5E8D94" transform="translate(609,326)"/>
<path d="M0 0 C28.38 0 56.76 0 86 0 C86 9.57 86 19.14 86 29 C68.18 29 50.36 29 32 29 C32 40.88 32 52.76 32 65 C47.51 65 63.02 65 79 65 C79 74.57 79 84.14 79 94 C63.82 94 48.64 94 33 94 C33 115.45 33 136.9 33 159 C22.11 159 11.22 159 0 159 C0 106.53 0 54.06 0 0 Z M1 2 C1 53.48 1 104.96 1 158 C10.9 158 20.8 158 31 158 C31 136.55 31 115.1 31 93 C54.265 92.505 54.265 92.505 78 92 C78 83.42 78 74.84 78 66 C74.69097656 65.93941406 71.38195312 65.87882812 67.97265625 65.81640625 C64.78228341 65.7546706 61.59194797 65.69126067 58.40161133 65.62768555 C56.17736104 65.58426412 53.95307585 65.54259455 51.72875977 65.50268555 C48.53911805 65.44515694 45.3496532 65.38141316 42.16015625 65.31640625 C41.15912369 65.29969376 40.15809113 65.28298126 39.12672424 65.26576233 C38.20584518 65.24581711 37.28496613 65.22587189 36.33618164 65.20532227 C35.52121719 65.18977798 34.70625275 65.1742337 33.86659241 65.15821838 C32 65 32 65 31 64 C30.83990837 61.26321352 30.74045579 58.54812082 30.68359375 55.80859375 C30.66494263 55.08224731 30.6462915 54.35590088 30.6270752 53.60754395 C30.5585799 50.88432419 30.49855759 48.16089667 30.4375 45.4375 C30.293125 39.353125 30.14875 33.26875 30 27 C47.82 27 65.64 27 84 27 C84 19.08 84 11.16 84 3 C82.25772705 1.25772705 79.99720177 1.88020571 77.67612362 1.87557125 C76.91151601 1.87916936 76.1469084 1.88276747 75.35913086 1.88647461 C74.5462111 1.88635407 73.73329134 1.88623354 72.89573765 1.88610935 C70.25207896 1.88685853 67.6084899 1.89448697 64.96484375 1.90234375 C63.33760614 1.90381315 61.71036806 1.90483387 60.08312988 1.90539551 C54.0345794 1.91064857 47.98603903 1.92460965 41.9375 1.9375 C28.428125 1.958125 14.91875 1.97875 1 2 Z " fill="#DADB72" transform="translate(93,97)"/>
<path d="M0 0 C10.89 0 21.78 0 33 0 C33 52.47 33 104.94 33 159 C22.11 159 11.22 159 0 159 C0 106.53 0 54.06 0 0 Z M2 2 C2 53.48 2 104.96 2 158 C11.57 158 21.14 158 31 158 C31.02255161 137.95543454 31.04098186 117.91087931 31.05181217 97.8663044 C31.05697397 88.55979077 31.06401446 79.25328557 31.07543945 69.94677734 C31.08538984 61.8376022 31.09185428 53.72843316 31.09408849 45.61925209 C31.095395 41.32337112 31.09847705 37.02750762 31.10573006 32.73163223 C31.11249585 28.69176084 31.11461581 24.65191418 31.11310768 20.61203766 C31.11338376 19.12609854 31.11538558 17.64015863 31.11920547 16.1542244 C31.12415135 14.13180381 31.12239552 12.10937008 31.12025452 10.08694458 C31.12117631 8.95313921 31.1220981 7.81933384 31.12304783 6.65117073 C31.18054095 4.0233614 31.18054095 4.0233614 30 2 C20.76 2 11.52 2 2 2 Z " fill="#D2D161" transform="translate(393,97)"/>
<path d="M0 0 C11.22 0 22.44 0 34 0 C35.25503541 2.51007082 35.13426382 4.22928483 35.14717102 7.0393219 C35.15432632 8.10607651 35.16148163 9.17283112 35.16885376 10.27191162 C35.17154266 11.4474762 35.17423157 12.62304077 35.17700195 13.83422852 C35.18685875 15.68566719 35.18685875 15.68566719 35.19691467 17.57450867 C35.21669028 21.67597696 35.22832253 25.77740606 35.23828125 29.87890625 C35.24232916 31.29213925 35.2464461 32.70537206 35.25063133 34.11860466 C35.26969089 40.76237808 35.28391681 47.40614037 35.2922433 54.04993588 C35.30200036 61.70831526 35.3282762 69.36640443 35.36874419 77.02468163 C35.39897086 82.94923216 35.41371861 88.87369985 35.41702431 94.79832596 C35.4193686 98.33384219 35.42824617 101.86904868 35.45348549 105.40448189 C35.48124033 109.35641725 35.47691505 113.30797598 35.4699707 117.26000977 C35.48278076 118.42140472 35.49559082 119.58279968 35.50878906 120.77938843 C35.46397308 127.79170787 34.38421268 132.86132887 31 139 C30.32981723 140.33156948 29.66213879 141.66441232 29 143 C29.66 143.33 30.32 143.66 31 144 C30.25 146.4375 30.25 146.4375 29 149 C26.9375 149.6875 26.9375 149.6875 25 150 C24.67 150.66 24.34 151.32 24 152 C23.01 151.67 22.02 151.34 21 151 C21.81404297 149.76636719 21.81404297 149.76636719 22.64453125 148.5078125 C23.36781787 147.38061257 24.09043799 146.25298478 24.8125 145.125 C25.52019531 144.03445312 26.22789062 142.94390625 26.95703125 141.8203125 C31.79078914 133.39875005 32.44435298 124.83361204 32.43237305 115.29833984 C32.4425647 114.06792969 32.45275635 112.83751953 32.46325684 111.56982422 C32.48810912 108.22741978 32.50008189 104.88545334 32.50611091 101.54299498 C32.51555064 98.03824972 32.5417581 94.53362878 32.56611633 91.02896118 C32.60963212 84.40653323 32.63827034 77.78412961 32.66143972 71.16160262 C32.68857186 63.61609752 32.73247809 56.0707184 32.77772844 48.5253036 C32.87036081 33.01691995 32.93992536 17.50854915 33 2 C21.78 2 10.56 2 -1 2 C-0.67 1.34 -0.34 0.68 0 0 Z " fill="#184B3A" transform="translate(336,95)"/>
<path d="M0 0 C0.33 0 0.66 0 1 0 C1.85991873 8.55379028 2.13060426 16.99823868 2.08229065 25.5914917 C2.07744696 27.56697648 2.07744696 27.56697648 2.07250541 29.58237004 C2.06348871 33.20378808 2.04806878 36.82515377 2.03152263 40.44654417 C2.01477121 44.3645584 2.00407268 48.28258992 1.99261475 52.20062256 C1.97197905 58.97758198 1.94756391 65.75451917 1.92053413 72.53145599 C1.88145982 82.3295999 1.84815943 92.12775684 1.81623887 101.92592636 C1.76428626 117.8253076 1.70770616 133.72466883 1.64819336 149.62402344 C1.59041444 165.06281761 1.53482894 180.50161714 1.48217773 195.94042969 C1.47892802 196.89311559 1.4756783 197.84580149 1.4723301 198.82735667 C1.45603964 203.60701173 1.43979213 208.38666695 1.42356598 213.16632223 C1.28903673 252.77757284 1.14698796 292.38879377 1 332 C0.67 332 0.34 332 0 332 C-0.1506308 292.16025319 -0.2956626 252.32048956 -0.4332476 212.48069546 C-0.44951743 207.77090295 -0.46583334 203.06111061 -0.48217773 198.35131836 C-0.48543066 197.41373398 -0.48868358 196.47614961 -0.49203508 195.51015358 C-0.54472734 180.35438878 -0.60114683 165.19864005 -0.6589582 150.04289401 C-0.71825093 134.47690384 -0.77350473 118.91090305 -0.82505554 103.34488529 C-0.85695818 93.74974614 -0.89196312 84.15462883 -0.93101191 74.55951606 C-0.95753296 67.96836733 -0.98010985 61.37721221 -0.99967117 54.78603918 C-1.01104911 50.99059204 -1.02408333 47.19517101 -1.04183006 43.39974785 C-1.17622984 14.21452219 -1.17622984 14.21452219 0 0 Z " fill="#063D42" transform="translate(21,45)"/>
<path d="M0 0 C27.39 0 54.78 0 83 0 C83.33 9.24 83.66 18.48 84 28 C66.18 28 48.36 28 30 28 C30 39.88 30 51.76 30 64 C29.34 63.67 28.68 63.34 28 63 C28 50.79 28 38.58 28 26 C31.40280689 25.14929828 33.62194663 24.90049879 37.04394531 24.97827148 C38.04468079 24.99836777 39.04541626 25.01846405 40.07647705 25.03916931 C41.14952087 25.06620438 42.2225647 25.09323944 43.328125 25.12109375 C44.98433868 25.15651024 44.98433868 25.15651024 46.67401123 25.19264221 C50.19947431 25.26919528 53.72471312 25.35325601 57.25 25.4375 C59.64061404 25.49072902 62.03123901 25.54346937 64.421875 25.59570312 C70.28143327 25.72388096 76.14062835 25.86220725 82 26 C81.67 18.08 81.34 10.16 81 2 C54.27 1.67 27.54 1.34 0 1 C0 0.67 0 0.34 0 0 Z " fill="#EEDD55" transform="translate(95,98)"/>
<path d="M0 0 C2.1263932 2.1263932 2.6972194 3.44817548 3.734375 6.2265625 C4.05849365 7.08668945 4.3826123 7.94681641 4.71655273 8.83300781 C5.05759033 9.75436523 5.39862793 10.67572266 5.75 11.625 C6.10199463 12.56182617 6.45398926 13.49865234 6.81665039 14.46386719 C7.88369824 17.30707236 8.94322793 20.15296112 10 23 C11.32643971 26.57344303 11.32643971 26.57344303 12.65527344 30.14599609 C13.16810586 31.52539365 13.67797937 32.90589569 14.18457031 34.28759766 C15.18176148 37.38402838 15.18176148 37.38402838 17 40 C17.09405142 41.9943173 17.11743249 43.99199543 17.11352539 45.98852539 C17.11344986 47.26977798 17.11337433 48.55103058 17.11329651 49.87110901 C17.10818909 51.27995848 17.10297309 52.68880756 17.09765625 54.09765625 C17.09579202 55.53112234 17.09436814 56.96458907 17.09336853 58.39805603 C17.08954372 62.17759957 17.07971377 65.9571049 17.06866455 69.7366333 C17.0566548 74.26787781 17.05204801 78.79913507 17.04621124 83.33039093 C17.03650198 90.22028722 17.0173452 97.11009962 17 104 C27.23 104 37.46 104 48 104 C45.44692879 106.55307121 44.35079452 106.30808488 40.80078125 106.44921875 C39.75599609 106.49240234 38.71121094 106.53558594 37.63476562 106.58007812 C36.53841797 106.61552734 35.44207031 106.65097656 34.3125 106.6875 C33.23548828 106.73455078 32.15847656 106.78160156 31.04882812 106.83007812 C20.33360309 107.23083148 20.33360309 107.23083148 15 106 C13.62667306 103.25334611 13.88035108 101.06375932 13.88647461 97.98974609 C13.88655014 96.72858978 13.88662567 95.46743347 13.88670349 94.1680603 C13.89181051 92.78651897 13.89702651 91.40497804 13.90234375 90.0234375 C13.90420856 88.6138209 13.90563217 87.20420366 13.90663147 85.79458618 C13.91045167 82.08246068 13.92027772 78.37037422 13.93133545 74.65826416 C13.94156025 70.87113981 13.94613138 67.08400917 13.95117188 63.296875 C13.96190042 55.86456552 13.97897089 48.43228823 14 41 C13.67 41 13.34 41 13 41 C12.731875 39.906875 12.46375 38.81375 12.1875 37.6875 C11.04172149 34.12955621 10.51025426 33.40111277 8 31 C7.3125 28.3125 7.3125 28.3125 7 26 C6.34 26.33 5.68 26.66 5 27 C5.22558594 25.83984375 5.45117188 24.6796875 5.68359375 23.484375 C6.27869945 18.71933116 5.05831001 15.52112076 3.0625 11.25 C1.2956353 7.32450459 0 4.41695656 0 0 Z " fill="#1E4B34" transform="translate(212,152)"/>
<path d="M0 0 C10.23 0 20.46 0 31 0 C31.06781379 16.53369733 31.123038 33.06727531 31.15543652 49.60107327 C31.17088193 57.2786146 31.19192675 64.95606315 31.22631836 72.63354492 C31.25629219 79.3280257 31.2755919 86.02243926 31.28226548 92.71698529 C31.28616428 96.259192 31.29527794 99.80120648 31.31719017 103.34335136 C31.34149714 107.30502707 31.34196488 111.26651755 31.34057617 115.22827148 C31.351362 116.39280853 31.36214783 117.55734558 31.3732605 118.75717163 C31.34127901 127.20532281 30.09873067 134.44783279 25.3125 141.5625 C24.87550781 142.22378906 24.43851562 142.88507813 23.98828125 143.56640625 C23.66214844 144.03949219 23.33601563 144.51257813 23 145 C22.34 143.68 21.68 142.36 21 141 C21.99 141 22.98 141 24 141 C24.67801034 138.09926819 24.67801034 138.09926819 25 135 C24.34 134.34 23.68 133.68 23 133 C23.97405792 132.2626059 24.94811584 131.52521179 25.95169067 130.76547241 C29.73101992 126.9470884 29.72890354 123.45639212 29.8099823 118.25735474 C29.79776138 117.10073334 29.78554047 115.94411194 29.77294922 114.75244141 C29.78357895 113.52261536 29.79420868 112.29278931 29.80516052 111.0256958 C29.82839655 107.66596314 29.82527063 104.30821799 29.81029272 100.94857073 C29.80089598 97.43308894 29.82537859 93.91784442 29.84622192 90.4024353 C29.88053236 83.75142541 29.88450415 77.10075949 29.87749684 70.44967878 C29.87099978 62.87521437 29.89844477 55.30099091 29.92869925 47.72659802 C29.99015493 32.15096852 30.00464097 16.57577137 30 1 C20.1 1 10.2 1 0 1 C0 0.67 0 0.34 0 0 Z " fill="#EFE160" transform="translate(337,98)"/>
<path d="M0 0 C2.32821686 3.4923253 2.25015737 5.12059 2.375 9.25 C2.79206504 16.05195172 4.10708691 20.10708691 9 25 C6.25362183 24.62118922 5.19950942 24.22167713 3.3125 22.125 C-0.32598429 16.23412067 1 13.10244199 1 5 C-8.9 5 -18.8 5 -29 5 C-28.76280068 21.28411299 -28.76280068 21.28411299 -25 37 C-28.1129347 34.24066438 -29.5011134 32.42402368 -30.1875 28.3125 C-30.51688726 25.36885891 -30.51688726 25.36885891 -32 23 C-32.08669432 21.5112814 -32.10703494 20.018555 -32.09765625 18.52734375 C-32.09443359 17.62822266 -32.09121094 16.72910156 -32.08789062 15.80273438 C-32.07951172 14.85720703 -32.07113281 13.91167969 -32.0625 12.9375 C-32.05798828 11.98810547 -32.05347656 11.03871094 -32.04882812 10.06054688 C-32.0370011 7.70696935 -32.02052025 5.35351523 -32 3 C-28.55951096 1.9682188 -25.32032464 1.81705292 -21.73828125 1.71875 C-20.53751953 1.68136719 -19.33675781 1.64398438 -18.09960938 1.60546875 C-15.5631601 1.53483014 -13.02670164 1.46452064 -10.49023438 1.39453125 C-9.29333984 1.35714844 -8.09644531 1.31976563 -6.86328125 1.28125 C-5.76282471 1.25095703 -4.66236816 1.22066406 -3.52856445 1.18945312 C-1.063786 1.28121877 -1.063786 1.28121877 0 0 Z " fill="#2B5849" transform="translate(305,203)"/>
<path d="M0 0 C2.52158004 7.56474011 -3.8757827 18.47015605 -6.6953125 25.6328125 C-8.92106801 31.37712763 -10.9529777 37.18994096 -13 43 C-15.24015526 40.75984474 -15.77038318 39.27920704 -16.8125 36.3125 C-17.15539062 35.33667969 -17.49828125 34.36085937 -17.8515625 33.35546875 C-18.23054687 32.24816406 -18.60953125 31.14085937 -19 30 C-19.21624023 29.37174316 -19.43248047 28.74348633 -19.65527344 28.09619141 C-24.11896787 15.09255935 -24.11896787 15.09255935 -25 10 C-21.74585397 13.69034007 -20.01031044 17.06115403 -18.375 21.6875 C-16.85901229 26.26529185 -16.85901229 26.26529185 -14 30 C-13.54625 29.505 -13.0925 29.01 -12.625 28.5 C-11 27 -11 27 -9 27 C-9.020625 26.2575 -9.04125 25.515 -9.0625 24.75 C-9.00671312 22.29537721 -8.6930096 20.33890739 -8 18 C-8.66 17.67 -9.32 17.34 -10 17 C-9 14 -9 14 -8 12 C-7.01 11.5978125 -7.01 11.5978125 -6 11.1875 C-3.71525923 10.14044802 -3.71525923 10.14044802 -3.25 7.375 C-3.1675 6.59125 -3.085 5.8075 -3 5 C-2.34 5 -1.68 5 -1 5 C-0.67 3.35 -0.34 1.7 0 0 Z " fill="#124F4A" transform="translate(258,110)"/>
<path d="M0 0 C1 2 1 2 -0.0625 5.4375 C-1.45576041 8.98515382 -3.1963262 12.24180839 -5.0625 15.5625 C-7.38914499 19.70899602 -8.92031697 23.38680888 -10 28 C-10.33 28.66 -10.66 29.32 -11 30 C-11.66 30 -12.32 30 -13 30 C-13.33 32.31 -13.66 34.62 -14 37 C-14.66 37 -15.32 37 -16 37 C-16.79211929 38.89564426 -17.58367576 40.79152371 -18.375 42.6875 C-19.03628906 44.27111328 -19.03628906 44.27111328 -19.7109375 45.88671875 C-20.82757462 48.58356657 -21.92291801 51.28716264 -23 54 C-23.66 54 -24.32 54 -25 54 C-25 54.99 -25 55.98 -25 57 C-25.66 57 -26.32 57 -27 57 C-27 58.65 -27 60.3 -27 62 C-27.66 62 -28.32 62 -29 62 C-29 63.65 -29 65.3 -29 67 C-28.34 67 -27.68 67 -27 67 C-26.61908203 67.99580078 -26.61908203 67.99580078 -26.23046875 69.01171875 C-24.05975046 74.61429509 -24.05975046 74.61429509 -21.1875 79.875 C-20 82 -20 82 -20.42578125 84.1328125 C-20.61527344 84.74898438 -20.80476562 85.36515625 -21 86 C-21.55429687 84.87980469 -22.10859375 83.75960937 -22.6796875 82.60546875 C-23.41135191 81.13275962 -24.14312861 79.66010628 -24.875 78.1875 C-25.23980469 77.44951172 -25.60460937 76.71152344 -25.98046875 75.95117188 C-26.51220703 74.88286133 -26.51220703 74.88286133 -27.0546875 73.79296875 C-27.54171143 72.81106567 -27.54171143 72.81106567 -28.03857422 71.80932617 C-29.09255672 69.75347202 -29.09255672 69.75347202 -31 67 C-31.58845699 62.61926466 -30.28309858 60.33219933 -27.9375 56.6875 C-25.04872716 51.95037753 -22.66237724 47.23172117 -20.5 42.125 C-17.85429794 35.89600912 -14.97887091 29.84601014 -11.90625 23.8125 C-9.1259743 18.31161116 -6.53859752 12.71634822 -3.93212891 7.1315918 C-3.56522949 6.34953369 -3.19833008 5.56747559 -2.8203125 4.76171875 C-2.49305176 4.06006592 -2.16579102 3.35841309 -1.82861328 2.63549805 C-1 1 -1 1 0 0 Z " fill="#2B5638" transform="translate(550,111)"/>
<path d="M0 0 C1.010625 0.5775 2.02125 1.155 3.0625 1.75 C3.70574219 2.11351562 4.34898437 2.47703125 5.01171875 2.8515625 C6.82535995 3.89912736 8.60261455 5.00905361 10.375 6.125 C14.37662963 8.41806866 18.49621377 9.20913181 23 10 C23.94875 10.20625 24.8975 10.4125 25.875 10.625 C39.65158502 12.2781902 54.69830096 11.60768939 66 3 C67.05960938 2.16275391 67.05960938 2.16275391 68.140625 1.30859375 C70 0 70 0 72 0 C72 0.66 72 1.32 72 2 C71.34 2 70.68 2 70 2 C70 2.66 70 3.32 70 4 C69.34 4.33 68.68 4.66 68 5 C67.67 5.66 67.34 6.32 67 7 C64.67843403 7.40729228 62.3431213 7.74438677 60 8 C60 8.66 60 9.32 60 10 C56.63534351 12.00257868 53.81882805 12.33644992 49.9375 12.5625 C46.66820969 12.76051635 44.11608697 12.96130434 41 14 C39.66636297 14.14403348 38.32781954 14.24590423 36.98828125 14.31640625 C36.23095703 14.35830078 35.47363281 14.40019531 34.69335938 14.44335938 C33.90767578 14.48267578 33.12199219 14.52199219 32.3125 14.5625 C31.11657227 14.62727539 31.11657227 14.62727539 29.89648438 14.69335938 C27.93118553 14.79927368 25.96561504 14.90012551 24 15 C23.67 14.34 23.34 13.68 23 13 C21.7625 12.79375 20.525 12.5875 19.25 12.375 C12.45283443 11.02653006 6.48329172 7.12062845 1 3 C0.67 2.01 0.34 1.02 0 0 Z " fill="#154C46" transform="translate(285,247)"/>
<path d="M0 0 C1.0326802 2.78823655 1.04509293 3.8677274 0.0625 6.75 C-0.4634375 7.86375 -0.4634375 7.86375 -1 9 C-1.66 9 -2.32 9 -3 9 C-2.9175 9.66 -2.835 10.32 -2.75 11 C-3.04990397 14.59884759 -4.29309276 16.85003505 -5.9765625 19.99609375 C-7.29382545 22.57531472 -8.16919313 25.23064376 -9 28 C-10.41543415 28.19658808 -11.83244031 28.38187546 -13.25 28.5625 C-14.03890625 28.66691406 -14.8278125 28.77132813 -15.640625 28.87890625 C-18 29 -18 29 -19.88793945 28.51586914 C-22.0577945 27.98588374 -23.92291361 27.87077303 -26.15234375 27.8671875 C-26.92900391 27.86589844 -27.70566406 27.86460937 -28.50585938 27.86328125 C-29.30830078 27.86714844 -30.11074219 27.87101562 -30.9375 27.875 C-32.13536133 27.86919922 -32.13536133 27.86919922 -33.35742188 27.86328125 C-36.67687727 27.86878159 -39.689789 27.9372192 -42.953125 28.59765625 C-43.62859375 28.73042969 -44.3040625 28.86320312 -45 29 C-46.8125 27.5625 -46.8125 27.5625 -48 26 C-47.67 25.34 -47.34 24.68 -47 24 C-28.685 24.495 -28.685 24.495 -10 25 C-9.67 23.35 -9.34 21.7 -9 20 C-8.09224217 17.85290813 -7.12935126 15.7286412 -6.125 13.625 C-3.99482293 9.11373559 -1.92621099 4.60150404 0 0 Z " fill="#1C574F" transform="translate(488,231)"/>
<path d="M0 0 C0.66 0.33 1.32 0.66 2 1 C3.66399283 1.11887956 5.33249275 1.17711944 7.00048828 1.20532227 C8.56188034 1.2352401 8.56188034 1.2352401 10.15481567 1.26576233 C11.8454866 1.29083107 11.8454866 1.29083107 13.5703125 1.31640625 C14.72167694 1.33718735 15.87304138 1.35796844 17.05929565 1.37937927 C20.7478014 1.44491665 24.43638003 1.50377928 28.125 1.5625 C30.62110138 1.60568123 33.1171953 1.64929538 35.61328125 1.69335938 C41.74210981 1.80060231 47.87101133 1.90236089 54 2 C54 2.33 54 2.66 54 3 C36.18 3 18.36 3 0 3 C0 14.88 0 26.76 0 39 C-0.66 38.67 -1.32 38.34 -2 38 C-2 25.79 -2 13.58 -2 1 C-1.34 0.67 -0.68 0.34 0 0 Z " fill="#CBC74E" transform="translate(125,123)"/>
<path d="M0 0 C12.54 0 25.08 0 38 0 C38 0.99 38 1.98 38 3 C26.45 2.67 14.9 2.34 3 2 C3 2.66 3 3.32 3 4 C3.66 4 4.32 4 5 4 C5.33 5.65 5.66 7.3 6 9 C7.65 9 9.3 9 11 9 C11.33 9.66 11.66 10.32 12 11 C11.34 11.66 10.68 12.32 10 13 C9.83318891 16.08347826 9.83318891 16.08347826 10 19 C7.02689981 17.51344991 6.4515935 15.26286379 5 12.3125 C4.484375 11.27738281 3.96875 10.24226563 3.4375 9.17578125 C2 6 2 6 0 0 Z " fill="#E1DB62" transform="translate(442,97)"/>
<path d="M0 0 C0.68707555 2.49064888 1 4.37886292 1 7 C1.66 7 2.32 7 3 7 C3 8.32 3 9.64 3 11 C2.401875 11.144375 1.80375 11.28875 1.1875 11.4375 C-0.56150404 11.8872439 -2.28677023 12.42892341 -4 13 C-3.95875 14.2375 -3.9175 15.475 -3.875 16.75 C-3.86341709 20.01637962 -4.1431298 22.2146947 -6 25 C-6.66 25 -7.32 25 -8 25 C-8 26.65 -8 28.3 -8 30 C-8.66 30 -9.32 30 -10 30 C-10 31.65 -10 33.3 -10 35 C-10.66 35 -11.32 35 -12 35 C-13.485 40.94 -13.485 40.94 -15 47 C-15.66 46.67 -16.32 46.34 -17 46 C-16.39301681 40.7832256 -14.69640126 36.51289337 -12.625 31.75 C-10.66196326 27.13097406 -8.75454102 22.60309662 -7.4375 17.75 C-5.73484894 11.52131447 -2.80551338 5.79261339 0 0 Z " fill="#165145" transform="translate(283,133)"/>
<path d="M0 0 C-9.17689506 6.65702773 -19.22410276 5.64164854 -30.0078125 5.48828125 C-31.94407229 5.47894202 -33.88034399 5.47183116 -35.81661987 5.46684265 C-40.88359885 5.44786018 -45.94984768 5.39883582 -51.01654053 5.34332275 C-56.19842658 5.29194039 -61.38043198 5.26928824 -66.5625 5.24414062 C-76.70865205 5.19070779 -86.85426502 5.10550232 -97 5 C-97 4.67 -97 4.34 -97 4 C-95.95652405 3.99413376 -94.9130481 3.98826752 -93.83795166 3.98222351 C-84.00866127 3.92503378 -74.17959292 3.85229185 -64.35052872 3.76428509 C-59.29717856 3.71953965 -54.24390981 3.68029273 -49.19042969 3.65356445 C-44.31438373 3.62757312 -39.43865032 3.58720032 -34.56279755 3.53681374 C-32.70169713 3.52011677 -30.84054262 3.50862015 -28.97937775 3.50238609 C-26.37426413 3.49277571 -23.76995525 3.46475372 -21.16503906 3.43237305 C-20.39395813 3.43380814 -19.6228772 3.43524323 -18.82843018 3.4367218 C-14.50787955 3.36066868 -12.23069294 2.86099408 -9 0 C-2.63414634 -1.31707317 -2.63414634 -1.31707317 0 0 Z " fill="#18555A" transform="translate(609,326)"/>
<path d="M0 0 C3.58206268 3.84740065 5.43831375 7.96185535 7.51953125 12.70703125 C9.23393036 16.52032531 11.06761963 20.26112065 12.9375 24 C13.27740967 24.68481445 13.61731934 25.36962891 13.9675293 26.07519531 C16.01852147 30.17033814 18.22983024 34.11866066 20.5625 38.0625 C22.34592373 41.33211016 22.99137483 42.83324676 23.1875 46.625 C21.62379979 51.0692006 19.46177746 54.9939341 17 59 C16.67 59 16.34 59 16 59 C15.8125 56.6875 15.8125 56.6875 16 54 C17.375 52.4375 17.375 52.4375 19 51 C20.75288443 48.29123779 20.75288443 48.29123779 20.6953125 45.17578125 C19.89554101 42.67312552 18.82609104 40.46166803 17.625 38.125 C17.18027344 37.25101563 16.73554688 36.37703125 16.27734375 35.4765625 C15.24931606 33.48338343 14.21880492 31.49148535 13.1875 29.5 C12 27 12 27 12 25 C11.01 24.67 10.02 24.34 9 24 C7.95590957 21.67359006 7.10309582 19.47250358 6.3125 17.0625 C6.08755859 16.41603516 5.86261719 15.76957031 5.63085938 15.10351562 C4 10.32990597 4 10.32990597 4 8 C2.35 7.67 0.7 7.34 -1 7 C-0.67 4.69 -0.34 2.38 0 0 Z " fill="#27533B" transform="translate(457,129)"/>
<path d="M0 0 C2.71706596 2.35530364 3.7455563 4.50891008 4.9375 7.875 C6.14052563 11.08461665 7.02144916 13.02561983 9.25 15.6875 C11.6336623 18.83733947 11.30149005 21.15600181 11 25 C11.66 25 12.32 25 13 25 C14.25664978 27.90600261 15 29.79604584 15 33 C16.91466367 32.87822312 16.91466367 32.87822312 19 32 C21.53370588 28.65188866 22 27.29875783 22 23 C23.32 23.33 24.64 23.66 26 24 C24.24009216 29.91969002 21.60305395 35.41634992 19 41 C15.73768411 39.36884205 14.89229295 35.88533988 13.4375 32.6875 C13.09396484 31.94290527 12.75042969 31.19831055 12.39648438 30.43115234 C11.65422163 28.81769701 10.9152658 27.20271724 10.17919922 25.58642578 C8.95254585 22.89591526 7.71284203 20.21164008 6.47265625 17.52734375 C5.64763459 15.72693021 4.82339966 13.92615592 4 12.125 C3.60224365 11.26350342 3.2044873 10.40200684 2.79467773 9.5144043 C2.42930908 8.707854 2.06394043 7.90130371 1.6875 7.0703125 C1.36136719 6.35633301 1.03523438 5.64235352 0.69921875 4.90673828 C0 3 0 3 0 0 Z " fill="#1E4E39" transform="translate(482,100)"/>
<path d="M0 0 C1.12377697 3.30435084 0.89554742 5.0506862 -0.4375 8.25 C-0.86869141 9.30960938 -0.86869141 9.30960938 -1.30859375 10.390625 C-1.53675781 10.92171875 -1.76492188 11.4528125 -2 12 C-2.66 12 -3.32 12 -4 12 C-3.67 13.65 -3.34 15.3 -3 17 C-3.99 17.33 -4.98 17.66 -6 18 C-5.6596875 19.6396875 -5.6596875 19.6396875 -5.3125 21.3125 C-5 25 -5 25 -6.4375 26.9375 C-6.953125 27.288125 -7.46875 27.63875 -8 28 C-8.66 27.67 -9.32 27.34 -10 27 C-10.103125 28.051875 -10.20625 29.10375 -10.3125 30.1875 C-10.97949332 33.88628113 -11.74990008 36.02986811 -14 39 C-14.66 39 -15.32 39 -16 39 C-16.33 39.66 -16.66 40.32 -17 41 C-18.24153577 37.2753927 -17.63331998 36.63236342 -15.9375 33.203125 C-15.4731958 32.25058838 -15.0088916 31.29805176 -14.53051758 30.31665039 C-14.02544678 29.30465576 -13.52037598 28.29266113 -13 27.25 C-11.98250289 25.17085178 -10.96557691 23.09142396 -9.94921875 21.01171875 C-9.44696777 19.99126465 -8.9447168 18.97081055 -8.42724609 17.91943359 C-6.50611117 13.98974981 -4.64997251 10.03183578 -2.8125 6.0625 C-2.26207031 4.87785156 -1.71164062 3.69320312 -1.14453125 2.47265625 C-0.76683594 1.65667969 -0.38914062 0.84070313 0 0 Z " fill="#DBD25A" transform="translate(519,100)"/>
<path d="M0 0 C0.66 0 1.32 0 2 0 C1.47814894 4.70361759 0.20353095 7.76314153 -2.3125 11.75 C-5.0386775 16.24376006 -7.13702723 20.58127559 -8.96875 25.4921875 C-10.53930462 29.31149078 -12.58712302 32.84024584 -14.60546875 36.4375 C-16.30254798 39.5559425 -17.68243211 42.70608028 -19 46 C-19.91058531 42.92677456 -20.08886184 40.19902639 -20 37 C-18.02 36.505 -18.02 36.505 -16 36 C-16 34.68 -16 33.36 -16 32 C-15.02215265 30.97832756 -14.01965023 29.97995582 -13 29 C-12.00626561 26.7396956 -12.00626561 26.7396956 -11.3125 24.3125 C-11.06113281 23.50425781 -10.80976563 22.69601563 -10.55078125 21.86328125 C-10.36902344 21.24839844 -10.18726563 20.63351563 -10 20 C-9.34 20 -8.68 20 -8 20 C-7.7834375 18.8553125 -7.7834375 18.8553125 -7.5625 17.6875 C-7 15 -7 15 -6 12 C-5.34 12 -4.68 12 -4 12 C-4.33 10.02 -4.66 8.04 -5 6 C-4.34 6.33 -3.68 6.66 -3 7 C-2.67 5.68 -2.34 4.36 -2 3 C-1.34 3 -0.68 3 0 3 C0 2.01 0 1.02 0 0 Z " fill="#1E513F" transform="translate(471,188)"/>
<path d="M0 0 C5.91613232 6.59876298 9.65280969 14.87110925 13 23 C13.8353125 24.6396875 13.8353125 24.6396875 14.6875 26.3125 C16 29 16 29 16 31 C16.66 31 17.32 31 18 31 C18.66 32.65 19.32 34.3 20 36 C20.99 35.505 20.99 35.505 22 35 C21.67 36.98 21.34 38.96 21 41 C21.99 41 22.98 41 24 41 C25.4783226 43.95664519 25.06032783 46.74229737 25 50 C22.41152214 47.68240936 21.00991404 45.36661743 19.5 42.25 C19.066875 41.35925781 18.63375 40.46851563 18.1875 39.55078125 C17.248027 37.53276852 16.36380694 35.48904148 15.5 33.4375 C14.29097631 30.6668207 12.99807071 28.17520665 11.5 25.5625 C9.91028635 22.7698873 8.59835334 20.10263761 7.5625 17.0625 C6.06321235 12.72153925 3.68798063 9.04438847 1.20703125 5.19921875 C0 3 0 3 0 0 Z M19 27 C20.98 27.495 20.98 27.495 23 28 C21.625 29.5 21.625 29.5 20 31 C19.34 31 18.68 31 18 31 C18.33 29.68 18.66 28.36 19 27 Z " fill="#1E503B" transform="translate(530,197)"/>
<path d="M0 0 C12.54 0 25.08 0 38 0 C39.20577254 4.82309018 38.4840323 5.59880178 36.0625 9.75 C35.49660156 10.73484375 34.93070313 11.7196875 34.34765625 12.734375 C33.68056641 13.85585937 33.68056641 13.85585937 33 15 C32.34 15 31.68 15 31 15 C32.18602335 11.83727106 33.55925964 8.82553372 35.078125 5.8125 C35.61808105 4.73935547 35.61808105 4.73935547 36.16894531 3.64453125 C36.58031738 2.83048828 36.58031738 2.83048828 37 2 C31.90933774 2.09341361 26.81915796 2.19947911 21.72900391 2.31738281 C19.99665593 2.35571341 18.26422726 2.39055906 16.53173828 2.421875 C14.04430251 2.46743765 11.55742434 2.52544503 9.0703125 2.5859375 C8.29317902 2.59748871 7.51604553 2.60903992 6.71536255 2.62094116 C2.39349025 2.58793768 2.39349025 2.58793768 -1 5 C-0.67 3.35 -0.34 1.7 0 0 Z " fill="#255734" transform="translate(520,95)"/>
<path d="M0 0 C0.99 0.33 1.98 0.66 3 1 C2.18595703 1.50660156 2.18595703 1.50660156 1.35546875 2.0234375 C0.64003906 2.46945313 -0.07539063 2.91546875 -0.8125 3.375 C-1.87404297 4.03628906 -1.87404297 4.03628906 -2.95703125 4.7109375 C-4.65432039 5.78188476 -6.33014358 6.88676239 -8 8 C-10.51840956 8.46786967 -12.9610803 8.83900742 -15.5 9.125 C-16.21905518 9.2084668 -16.93811035 9.29193359 -17.67895508 9.37792969 C-30.67602908 10.80155018 -44.53351233 11.0563001 -56 4 C-56.33 3.34 -56.66 2.68 -57 2 C-52.545 2.99 -52.545 2.99 -48 4 C-48 4.66 -48 5.32 -48 6 C-41.4949168 6.9668673 -35.13437512 7.18321865 -28.5625 7.1875 C-27.57701172 7.19974609 -26.59152344 7.21199219 -25.57617188 7.22460938 C-19.41334339 7.23686152 -13.93404405 6.72045021 -8 5 C-7.67 4.34 -7.34 3.68 -7 3 C-4.67843403 2.59270772 -2.3431213 2.25561323 0 2 C0 1.34 0 0.68 0 0 Z " fill="#C8C967" transform="translate(349,249)"/>
<path d="M0 0 C0.33 0 0.66 0 1 0 C1.24509839 6.84943945 1.45729017 13.69934068 1.64697266 20.55053711 C1.71529673 22.87954599 1.79106409 25.20834918 1.87451172 27.53686523 C1.9933784 30.89019451 2.085175 34.2433598 2.171875 37.59765625 C2.21439392 38.63334244 2.25691284 39.66902863 2.30072021 40.73609924 C2.4318453 47.0622999 1.91114238 50.92351614 -2 56 C-7.88720361 58.39479469 -12.81432269 58.05958361 -19 57 C-19 56.67 -19 56.34 -19 56 C-18.21753906 55.93941406 -17.43507813 55.87882812 -16.62890625 55.81640625 C-15.61699219 55.73261719 -14.60507812 55.64882812 -13.5625 55.5625 C-12.55316406 55.48128906 -11.54382813 55.40007812 -10.50390625 55.31640625 C-8.06359221 55.26788532 -8.06359221 55.26788532 -7 54 C-5.33382885 53.95936168 -3.66611905 53.957279 -2 54 C-2 52.35 -2 50.7 -2 49 C-1.34 49 -0.68 49 0 49 C0 32.83 0 16.66 0 0 Z " fill="#0F5553" transform="translate(333,172)"/>
<path d="M0 0 C2.125 0.9375 2.125 0.9375 4 2 C3.071875 2.5775 2.14375 3.155 1.1875 3.75 C-1.63145447 5.73985022 -3.04562867 7.26388013 -5 10 C-5.66 10 -6.32 10 -7 10 C-7 10.66 -7 11.32 -7 12 C-8.6796875 13.7265625 -8.6796875 13.7265625 -10.875 15.625 C-11.59429688 16.25664062 -12.31359375 16.88828125 -13.0546875 17.5390625 C-15 19 -15 19 -17 19 C-17.33 18.01 -17.66 17.02 -18 16 C-17.34 15.01 -16.68 14.02 -16 13 C-15.34 13 -14.68 13 -14 13 C-14 12.01 -14 11.02 -14 10 C-13.34 10 -12.68 10 -12 10 C-11.67 9.34 -11.34 8.68 -11 8 C-10.01 8.66 -9.02 9.32 -8 10 C-7.67 8.35 -7.34 6.7 -7 5 C-5.35 4.67 -3.7 4.34 -2 4 C-2 3.01 -2 2.02 -2 1 C-1.34 0.67 -0.68 0.34 0 0 Z " fill="#2D6068" transform="translate(37,364)"/>
<path d="M0 0 C0.68447708 0.02064514 1.36895416 0.04129028 2.07417297 0.06256104 C3.13321587 0.07105072 3.13321587 0.07105072 4.21365356 0.07971191 C6.46603048 0.10208193 8.71680926 0.15227404 10.96870422 0.20318604 C12.49667602 0.22325047 14.02467278 0.24150135 15.5526886 0.25787354 C19.29614178 0.30194802 23.03840218 0.37097529 26.78120422 0.45318604 C27.27620422 1.44318604 27.27620422 1.44318604 27.78120422 2.45318604 C11.94120422 2.94818604 11.94120422 2.94818604 -4.21879578 3.45318604 C-6.69379578 9.39318604 -6.69379578 9.39318604 -9.21879578 15.45318604 C-9.54879578 15.45318604 -9.87879578 15.45318604 -10.21879578 15.45318604 C-10.21879578 13.47318604 -10.21879578 11.49318604 -10.21879578 9.45318604 C-9.55879578 9.45318604 -8.89879578 9.45318604 -8.21879578 9.45318604 C-8.28067078 8.71068604 -8.34254578 7.96818604 -8.40629578 7.20318604 C-8.02183989 1.56449964 -5.49986861 -0.00259454 0 0 Z " fill="#255932" transform="translate(269.2187957763672,94.54681396484375)"/>
<path d="M0 0 C2.42750391 2.537845 3.24795828 4.69817999 3.875 8.0625 C4.58100963 11.64463084 5.64873656 14.59597965 7.25 17.875 C12.10523704 28.04650549 14.94685083 39.17651385 18 50 C16.5 48.6875 16.5 48.6875 15 47 C15 46.01 15 45.02 15 44 C14.34 44 13.68 44 13 44 C13 42.68 13 41.36 13 40 C12.01 39.67 11.02 39.34 10 39 C9.97421875 38.38253906 9.9484375 37.76507813 9.921875 37.12890625 C9.53805788 31.39781875 8.38099199 27.12659561 5.85546875 21.984375 C4.81482088 19.57045208 4.6644512 17.60050318 5 15 C4.34 15 3.68 15 3 15 C2 10 1 5 0 0 Z " fill="#D5D664" transform="translate(226,103)"/>
<path d="M0 0 C11.88 0 23.76 0 36 0 C35.06588007 3.7364797 33.77257035 6.60899585 32 10 C31 7 31 7 33 2 C21.78 2.33 10.56 2.66 -1 3 C-0.67 2.01 -0.34 1.02 0 0 Z " fill="#DEDC65" transform="translate(521,97)"/>
<path d="M0 0 C2.97730167 2.97730167 3.86585721 5.40715429 4.80078125 9.5390625 C6.23779916 15.4192277 8.84172242 20.794299 11.34179688 26.28515625 C11.69693359 27.09339844 12.05207031 27.90164062 12.41796875 28.734375 C12.74563232 29.45850586 13.0732959 30.18263672 13.41088867 30.92871094 C14.0970954 33.34138307 13.8091092 34.65810218 13 37 C12.608125 35.88625 12.21625 34.7725 11.8125 33.625 C10.57517033 30.68039334 10.26393503 30.14117455 7.3125 28.5625 C6.549375 28.376875 5.78625 28.19125 5 28 C5.33 24.7 5.66 21.4 6 18 C5.34 18 4.68 18 4 18 C3.32678716 15.75194998 2.66165877 13.50147776 2 11.25 C1.62875 9.99703125 1.2575 8.7440625 0.875 7.453125 C0 4 0 4 0 0 Z " fill="#275238" transform="translate(197,112)"/>
<path d="M0 0 C0.33 0 0.66 0 1 0 C0.67 2.97 0.34 5.94 0 9 C-0.66 9 -1.32 9 -2 9 C-2 9.66 -2 10.32 -2 11 C8.89 11 19.78 11 31 11 C31.66 8.03 32.32 5.06 33 2 C33.99 1.67 34.98 1.34 36 1 C34.78322054 4.7372512 33.46233512 8.3441622 32 12 C19.79 12 7.58 12 -5 12 C-3.54996379 7.64989137 -2.09990776 4.00891482 0 0 Z " fill="#D9DB68" transform="translate(446,244)"/>
<path d="M0 0 C9.9 0 19.8 0 30 0 C30.33 3.96 30.66 7.92 31 12 C32.39134713 16.06658593 32.39134713 16.06658593 34 19 C32.68 18.67 31.36 18.34 30 18 C29 14 29 14 29 1 C19.76 1 10.52 1 1 1 C1 7.6 1 14.2 1 21 C0.67 21 0.34 21 0 21 C0 14.07 0 7.14 0 0 Z " fill="#E3DF68" transform="translate(276,208)"/>
<path d="M0 0 C10.89 0 21.78 0 33 0 C30.45301089 2.54698911 28.74860182 2.96985366 25.1809082 3.11352539 C24.06546631 3.10828857 22.95002441 3.10305176 21.80078125 3.09765625 C20.59228516 3.09443359 19.38378906 3.09121094 18.13867188 3.08789062 C16.87603516 3.07951172 15.61339844 3.07113281 14.3125 3.0625 C12.40114258 3.05573242 12.40114258 3.05573242 10.45117188 3.04882812 C7.30073436 3.03702873 4.15039051 3.02056597 1 3 C0.67 2.01 0.34 1.02 0 0 Z " fill="#21574D" transform="translate(93,256)"/>
<path d="M0 0 C11.22 0 22.44 0 34 0 C31.44692879 2.55307121 30.35079452 2.30808488 26.80078125 2.44921875 C25.75599609 2.49240234 24.71121094 2.53558594 23.63476562 2.58007812 C22.53841797 2.61552734 21.44207031 2.65097656 20.3125 2.6875 C18.69698242 2.75807617 18.69698242 2.75807617 17.04882812 2.83007812 C6.33360309 3.23083148 6.33360309 3.23083148 1 2 C0.67 1.34 0.34 0.68 0 0 Z " fill="#20574D" transform="translate(226,256)"/>
<path d="M0 0 C0.66 0 1.32 0 2 0 C2.6888091 9.13466832 3.30192693 17.88651147 2 27 C2.66 27 3.32 27 4 27 C4 27.66 4 28.32 4 29 C2.68 29.33 1.36 29.66 0 30 C0 20.1 0 10.2 0 0 Z " fill="#175248" transform="translate(172,161)"/>
<path d="M0 0 C2.32821686 3.4923253 2.25015737 5.12059 2.375 9.25 C2.79206504 16.05195172 4.10708691 20.10708691 9 25 C6.25362183 24.62118922 5.19950942 24.22167713 3.3125 22.125 C-0.34618601 16.20141312 0.60283546 11.836861 0 4 C-13.86 3.505 -13.86 3.505 -28 3 C-28 2.67 -28 2.34 -28 2 C-26.78098999 1.96241577 -26.78098999 1.96241577 -25.53735352 1.92407227 C-21.87889248 1.80850882 -18.22071472 1.68560416 -14.5625 1.5625 C-13.28310547 1.52318359 -12.00371094 1.48386719 -10.68554688 1.44335938 C-8.86313477 1.38051758 -8.86313477 1.38051758 -7.00390625 1.31640625 C-5.87799072 1.27974854 -4.7520752 1.24309082 -3.59204102 1.20532227 C-1.07146559 1.28781955 -1.07146559 1.28781955 0 0 Z " fill="#0A5456" transform="translate(305,203)"/>
<path d="M0 0 C3 1 3 1 4.38671875 3.65234375 C4.81597656 4.73644531 5.24523437 5.82054687 5.6875 6.9375 C6.12449219 8.01902344 6.56148438 9.10054687 7.01171875 10.21484375 C8 13 8 13 8 15 C8.66 15 9.32 15 10 15 C10.63213182 25.18434604 10.63213182 25.18434604 8.0625 28.5 C7.381875 28.995 6.70125 29.49 6 30 C5.67 30.99 5.34 31.98 5 33 C4.34 33 3.68 33 3 33 C4.06535669 30.21368251 5.201546 27.62791508 6.625 25 C8.1237954 21.72990094 8.41917851 20.52889818 8 17 C6.85692479 14.1478537 5.44292985 11.46036823 4 8.75 C0 1.07432432 0 1.07432432 0 0 Z " fill="#DAD65F" transform="translate(471,155)"/>
<path d="M0 0 C0.33 0 0.66 0 1 0 C1.45356243 6.46326465 0.59378942 9.60931587 -3 15 C-2.34 15.33 -1.68 15.66 -1 16 C-1.75 18.4375 -1.75 18.4375 -3 21 C-5.0625 21.6875 -5.0625 21.6875 -7 22 C-7.33 22.66 -7.66 23.32 -8 24 C-8.99 23.67 -9.98 23.34 -11 23 C-10.45730469 22.17757812 -9.91460937 21.35515625 -9.35546875 20.5078125 C-5.07486892 13.87866197 -1.69342384 7.81444542 0 0 Z " fill="#1E5442" transform="translate(368,223)"/>
<path d="M0 0 C0 0.66 0 1.32 0 2 C-0.66 2 -1.32 2 -2 2 C-2 2.66 -2 3.32 -2 4 C-2.99 4.495 -2.99 4.495 -4 5 C-4.33 5.66 -4.66 6.32 -5 7 C-7.32156597 7.40729228 -9.6568787 7.74438677 -12 8 C-12 8.66 -12 9.32 -12 10 C-15.8415976 12.56780471 -19.8139175 12.22688882 -24.25 12.125 C-24.99507813 12.11597656 -25.74015625 12.10695313 -26.5078125 12.09765625 C-28.33868059 12.07418358 -30.16938238 12.03831525 -32 12 C-32 11.67 -32 11.34 -32 11 C-30.96101563 10.92523438 -29.92203125 10.85046875 -28.8515625 10.7734375 C-18.72631375 9.88024765 -11.96056116 7.70971347 -3.859375 1.30859375 C-2 0 -2 0 0 0 Z " fill="#26553E" transform="translate(357,247)"/>
<path d="M0 0 C10.89 0 21.78 0 33 0 C33.495 2.97 33.495 2.97 34 6 C33.34 5.34 32.68 4.68 32 4 C32 3.01 32 2.02 32 1 C22.43 1 12.86 1 3 1 C3.66 4.3 4.32 7.6 5 11 C1.71779105 9.35889552 1.25429211 6.30677012 0 3 C0 2.01 0 1.02 0 0 Z " fill="#D2DA72" transform="translate(192,97)"/>
<path d="M0 0 C0.33 0 0.66 0 1 0 C1.24091535 7.2274605 0.34495828 13.90294338 -1 21 C-1.33 21 -1.66 21 -2 21 C-2.33 23.97 -2.66 26.94 -3 30 C-3.33 30 -3.66 30 -4 30 C-4.43056126 19.23596845 -4.4248203 10.07436764 0 0 Z " fill="#528086" transform="translate(24,32)"/>
<path d="M0 0 C2.1965886 2.03610013 3.64032775 3.90442543 4.97265625 6.58203125 C5.31490234 7.26716797 5.65714844 7.95230469 6.00976562 8.65820312 C6.35716797 9.36912109 6.70457031 10.08003906 7.0625 10.8125 C7.5894043 11.86147461 7.5894043 11.86147461 8.12695312 12.93164062 C10.08158935 16.88155769 11.71815438 20.76924529 13 25 C9.22389189 22.48259459 8.7579636 20.10191506 7 16 C6.01 15.34 5.02 14.68 4 14 C3.67 13.01 3.34 12.02 3 11 C2.34 10.67 1.68 10.34 1 10 C1.020625 9.278125 1.04125 8.55625 1.0625 7.8125 C1.00179441 5.08074862 0.60741465 2.65743909 0 0 Z " fill="#E2D95D" transform="translate(519,178)"/>
<path d="M0 0 C0.33 0 0.66 0 1 0 C1 2.64 1 5.28 1 8 C-0.65 8.66 -2.3 9.32 -4 10 C-4 12.64 -4 15.28 -4 18 C-4.66 18 -5.32 18 -6 18 C-6 18.66 -6 19.32 -6 20 C-6.99 20 -7.98 20 -9 20 C-6.86233829 12.755702 -3.77315981 6.53281715 0 0 Z " fill="#DBD35B" transform="translate(461,214)"/>
<path d="M0 0 C0.103125 1.299375 0.20625 2.59875 0.3125 3.9375 C0.848308 8.90160353 2.24930225 13.34248334 4 18 C0.81554 15.07422162 -0.48074641 12.05134291 -2 8 C-2 7.01 -2 6.02 -2 5 C-2.66 5 -3.32 5 -4 5 C-4.66 6.98 -5.32 8.96 -6 11 C-7 8 -7 8 -5.75 4.375 C-3.48148148 0 -3.48148148 0 0 0 Z " fill="#E0D55C" transform="translate(503,202)"/>
<path d="M0 0 C0.66 0 1.32 0 2 0 C2 0.99 2 1.98 2 3 C1.34 3 0.68 3 0 3 C-0.48108275 4.41601714 -0.95978141 5.83284437 -1.4375 7.25 C-1.70433594 8.03890625 -1.97117187 8.8278125 -2.24609375 9.640625 C-2.91954708 11.74821988 -3.49150595 13.84753973 -4 16 C-4.66 16 -5.32 16 -6 16 C-5.773125 16.763125 -5.54625 17.52625 -5.3125 18.3125 C-5 21 -5 21 -6.3125 22.8125 C-8 24 -8 24 -10 24 C-7.90591324 15.34444139 -4.11688697 7.82772482 0 0 Z " fill="#2B502F" transform="translate(499,207)"/>
<path d="M0 0 C1.32 0.33 2.64 0.66 4 1 C2.24009216 6.91969002 -0.39694605 12.41634992 -3 18 C-3.66 17.67 -4.32 17.34 -5 17 C-4.5580783 11.47597881 -3.10884203 8.51283521 0 4 C0 2.68 0 1.36 0 0 Z " fill="#164C46" transform="translate(504,123)"/>
<path d="M0 0 C0.66 0.33 1.32 0.66 2 1 C-0.91494253 7.55862069 -0.91494253 7.55862069 -5.6875 9.5 C-10.19973684 10.29877639 -14.51569468 9.76814489 -19 9 C-19 8.67 -19 8.34 -19 8 C-18.21753906 7.93941406 -17.43507813 7.87882813 -16.62890625 7.81640625 C-15.61699219 7.73261719 -14.60507812 7.64882812 -13.5625 7.5625 C-12.55316406 7.48128906 -11.54382813 7.40007812 -10.50390625 7.31640625 C-8.06359221 7.26788532 -8.06359221 7.26788532 -7 6 C-5.33382885 5.95936168 -3.66611905 5.957279 -2 6 C-2 4.35 -2 2.7 -2 1 C-1.34 0.67 -0.68 0.34 0 0 Z " fill="#2A573F" transform="translate(333,220)"/>
<path d="M0 0 C1.37308679 4.11926036 -0.15786784 6.77128242 -1.6875 10.625 C-1.96352051 11.33978516 -2.23954102 12.05457031 -2.52392578 12.79101562 C-4.52762022 17.93371478 -6.6754984 22.99338116 -9 28 C-10.21079319 25.10949372 -10.02323255 24.05923111 -8.85546875 21.08203125 C-8.30503906 20.00308594 -7.75460937 18.92414063 -7.1875 17.8125 C-4.60390724 12.50144853 -2.98428115 7.80725877 -2 2 C-1.34 2 -0.68 2 0 2 C0 1.34 0 0.68 0 0 Z " fill="#D5D767" transform="translate(287,118)"/>
<path d="M0 0 C3.47429245 3.83044377 4.85508705 7.07355625 6.125 12.0625 C7.13553166 15.97517836 8.16240877 19.41347325 10 23 C10.125 25.75 10.125 25.75 10 28 C6.63593884 24.31228281 5.7021872 20.19968934 4.4375 15.5 C3.23411786 11.11119454 2.07880569 7.06181389 0 3 C0 2.01 0 1.02 0 0 Z " fill="#245139" transform="translate(233,120)"/>
<path d="M0 0 C2.0625 0.4375 2.0625 0.4375 4 1 C4 3 4 3 2.390625 4.65625 C1.68421875 5.2646875 0.9778125 5.873125 0.25 6.5 C-0.44609375 7.1084375 -1.1421875 7.716875 -1.859375 8.34375 C-3.84460792 9.87976963 -5.71872045 10.9723966 -8 12 C-8 11.01 -8 10.02 -8 9 C-6.68 8.67 -5.36 8.34 -4 8 C-4 7.01 -4 6.02 -4 5 C-3.34 5 -2.68 5 -2 5 C-1.855625 4.360625 -1.71125 3.72125 -1.5625 3.0625 C-1 1 -1 1 0 0 Z " fill="#3B6C71" transform="translate(72,331)"/>
<path d="M0 0 C1.07174763 3.65188082 0.76411467 6.26432828 0 10 C-0.66 10 -1.32 10 -2 10 C-3.485 15.94 -3.485 15.94 -5 22 C-5.66 21.67 -6.32 21.34 -7 21 C-6.38169051 15.97525707 -4.87023224 11.75279506 -2.9375 7.125 C-2.65583984 6.43664062 -2.37417969 5.74828125 -2.08398438 5.0390625 C-1.39484734 3.35710091 -0.69819202 1.67822303 0 0 Z " fill="#2A583E" transform="translate(273,158)"/>
<path d="M0 0 C0.66 0 1.32 0 2 0 C2 8.58 2 17.16 2 26 C1.34 26 0.68 26 0 26 C0.01740234 24.58847656 0.01740234 24.58847656 0.03515625 23.1484375 C0.04417969 21.90320313 0.05320313 20.65796875 0.0625 19.375 C0.07410156 18.14523438 0.08570313 16.91546875 0.09765625 15.6484375 C0.00854676 12.31930684 -0.44201722 9.27349897 -1 6 C-0.5625 2.625 -0.5625 2.625 0 0 Z " fill="#F0E048" transform="translate(169,163)"/>
<path d="M0 0 C1.26266359 3.57754685 0.70890774 5.85264918 -0.375 9.4375 C-2.69328978 16.18206689 -2.69328978 16.18206689 -2 23 C-2.66 23.66 -3.32 24.32 -4 25 C-4.12375 24.360625 -4.2475 23.72125 -4.375 23.0625 C-4.58125 22.381875 -4.7875 21.70125 -5 21 C-5.66 20.67 -6.32 20.34 -7 20 C-6.49339844 18.58847656 -6.49339844 18.58847656 -5.9765625 17.1484375 C-5.52600722 15.89063734 -5.07548832 14.63282414 -4.625 13.375 C-4.18414062 12.14523438 -3.74328125 10.91546875 -3.2890625 9.6484375 C-2.15654289 6.44306381 -1.06307102 3.22895402 0 0 Z " fill="#CECC67" transform="translate(251,133)"/>
<path d="M0 0 C1.0326802 2.78823655 1.04509293 3.8677274 0.0625 6.75 C-0.288125 7.4925 -0.63875 8.235 -1 9 C-1.66 9 -2.32 9 -3 9 C-2.9484375 9.71542969 -2.896875 10.43085938 -2.84375 11.16796875 C-3.02602747 14.47174781 -3.95027242 16.40676078 -5.5 19.3125 C-5.9640625 20.19550781 -6.428125 21.07851562 -6.90625 21.98828125 C-7.44765625 22.98408203 -7.44765625 22.98408203 -8 24 C-8.66 24 -9.32 24 -10 24 C-8.51873191 19.01755278 -6.41573491 14.41033419 -4.2421875 9.703125 C-2.76686459 6.49267389 -1.37422858 3.2547519 0 0 Z " fill="#224F39" transform="translate(488,231)"/>
<path d="M0 0 C-6.83285184 4.07063514 -12.03524914 5.76258253 -20 5 C-20 4.67 -20 4.34 -20 4 C-19.37351562 3.87882812 -18.74703125 3.75765625 -18.1015625 3.6328125 C-17.28429687 3.46523438 -16.46703125 3.29765625 -15.625 3.125 C-14.81289063 2.96257812 -14.00078125 2.80015625 -13.1640625 2.6328125 C-10.81326077 2.13341068 -10.81326077 2.13341068 -9 0 C-2.53846154 -1.26923077 -2.53846154 -1.26923077 0 0 Z " fill="#3D6B72" transform="translate(609,326)"/>
<path d="M0 0 C1.010625 0.5775 2.02125 1.155 3.0625 1.75 C3.70574219 2.11351562 4.34898437 2.47703125 5.01171875 2.8515625 C6.82535995 3.89912736 8.60261455 5.00905361 10.375 6.125 C14.34166733 8.42006492 18.52136062 9.22817099 23 10 C20.83441437 11.31586032 19.55222994 12.05909075 16.9921875 11.78515625 C10.64122844 9.61739347 5.08761623 6.40785122 0 2 C0 1.34 0 0.68 0 0 Z " fill="#24513A" transform="translate(285,247)"/>
<path d="M0 0 C0.886875 0.309375 1.77375 0.61875 2.6875 0.9375 C7.88415021 2.91281067 7.88415021 2.91281067 13 2 C13.66 2.33 14.32 2.66 15 3 C15 3.99 15 4.98 15 6 C15.66 6.33 16.32 6.66 17 7 C11.90537644 7.37277733 8.52363627 6.34558918 4 4 C1.5625 1.8125 1.5625 1.8125 0 0 Z " fill="#E5D44D" transform="translate(285,246)"/>
<path d="M0 0 C0.61669998 6.90703976 -0.88757018 10.47759424 -5 16 C-5.66 14.68 -6.32 13.36 -7 12 C-6.01 12 -5.02 12 -4 12 C-3.32198966 9.09926819 -3.32198966 9.09926819 -3 6 C-3.66 5.34 -4.32 4.68 -5 4 C-1.125 0 -1.125 0 0 0 Z " fill="#ECDA56" transform="translate(365,227)"/>
<path d="M0 0 C0.66 0 1.32 0 2 0 C2 0.66 2 1.32 2 2 C2.99 2.33 3.98 2.66 5 3 C8.13633014 8.93662491 8.13633014 8.93662491 7.6875 12.4375 C7.460625 12.953125 7.23375 13.46875 7 14 C6.4121875 12.329375 6.4121875 12.329375 5.8125 10.625 C4.57517033 7.68039334 4.26393503 7.14117455 1.3125 5.5625 C0.1678125 5.2840625 0.1678125 5.2840625 -1 5 C-0.67 3.35 -0.34 1.7 0 0 Z " fill="#1A5246" transform="translate(203,135)"/>
<path d="M0 0 C1.64826111 2.96687001 2.44271087 5.65626525 3 9 C3.66 9 4.32 9 5 9 C5.22786458 11.05078125 5.45572917 13.1015625 5.68359375 15.15234375 C5.81886614 17.01140229 5.81886614 17.01140229 7 18 C7.04063832 19.66617115 7.042721 21.33388095 7 23 C3.93119116 19.79169985 3.36318515 16.66535982 2.5390625 12.4609375 C1.67930294 8.53594818 0.34135611 4.78262422 -1 1 C-0.67 0.67 -0.34 0.34 0 0 Z " fill="#27543A" transform="translate(226,97)"/>
<path d="M0 0 C0.99 0.33 1.98 0.66 3 1 C-0.96 9.91 -0.96 9.91 -5 19 C-5.33 19 -5.66 19 -6 19 C-6.1875 15.6875 -6.1875 15.6875 -6 12 C-5.01104872 10.98907203 -4.00985149 9.99005048 -3 9 C-2.00626561 6.7396956 -2.00626561 6.7396956 -1.3125 4.3125 C-1.06113281 3.50425781 -0.80976562 2.69601563 -0.55078125 1.86328125 C-0.36902344 1.24839844 -0.18726563 0.63351563 0 0 Z " fill="#DFD965" transform="translate(531,144)"/>
<path d="M0 0 C1.68178661 2.52267991 2.90106742 4.81091823 4.125 7.5625 C4.47820312 8.34753906 4.83140625 9.13257812 5.1953125 9.94140625 C6 12 6 12 6 14 C5.34 14 4.68 14 4 14 C3.67 13.34 3.34 12.68 3 12 C1.68 12.33 0.36 12.66 -1 13 C-0.835 12.34 -0.67 11.68 -0.5 11 C0.12183299 7.26900206 0.06408926 3.78126622 0 0 Z " fill="#EDD955" transform="translate(481,100)"/>
<path d="M0 0 C0.66 0 1.32 0 2 0 C2.21914063 0.52207031 2.43828125 1.04414062 2.6640625 1.58203125 C5.07629736 7.18116175 7.86346543 12.44291506 10.92578125 17.71484375 C11.45751953 18.84599609 11.45751953 18.84599609 12 20 C11.67 20.66 11.34 21.32 11 22 C7.9927949 17.04999574 5.00844091 12.08580106 2.125 7.0625 C1.71507812 6.35222656 1.30515625 5.64195313 0.8828125 4.91015625 C0 3 0 3 0 0 Z " fill="#245036" transform="translate(441,98)"/>
<path d="M0 0 C8.91 0 17.82 0 27 0 C27 0.33 27 0.66 27 1 C26.32420898 1.02505615 25.64841797 1.0501123 24.95214844 1.07592773 C21.8845832 1.19210742 18.81730842 1.31473437 15.75 1.4375 C14.68652344 1.47681641 13.62304688 1.51613281 12.52734375 1.55664062 C10.99013672 1.61948242 10.99013672 1.61948242 9.421875 1.68359375 C8.47924805 1.72025146 7.53662109 1.75690918 6.56542969 1.79467773 C4.25748623 1.97939228 2.21859476 2.35861612 0 3 C0 2.01 0 1.02 0 0 Z " fill="#094B52" transform="translate(525,257)"/>
<path d="M0 0 C4.240455 5.30056874 7.33469234 10.18059647 8 17 C7.01 16.67 6.02 16.34 5 16 C5 14.35 5 12.7 5 11 C4.34 11 3.68 11 3 11 C3 9.68 3 8.36 3 7 C2.34 7 1.68 7 1 7 C0.67 4.69 0.34 2.38 0 0 Z " fill="#D9D360" transform="translate(532,203)"/>
<path d="M0 0 C3.00048246 3.58211445 4.77698774 7.53012116 6.6875 11.75 C7.16799805 12.79607422 7.16799805 12.79607422 7.65820312 13.86328125 C8.44306261 15.57357208 9.22211648 17.28652507 10 19 C9.01 19.33 8.02 19.66 7 20 C6.62875 18.7625 6.62875 18.7625 6.25 17.5 C3.97501116 10.19567999 3.97501116 10.19567999 -1 5 C-0.67 3.35 -0.34 1.7 0 0 Z " fill="#CFCD5D" transform="translate(491,123)"/>
<path d="M0 0 C5.34673609 3.32364676 6.47549821 7.19945661 8 13 C5.525 12.01 5.525 12.01 3 11 C3.33 9.68 3.66 8.36 4 7 C3.34 7 2.68 7 2 7 C1.67 7.66 1.34 8.32 1 9 C-0.4783226 6.04335481 -0.06032783 3.25770263 0 0 Z " fill="#09555B" transform="translate(449,116)"/>
<path d="M0 0 C1.32 0 2.64 0 4 0 C4 0.66 4 1.32 4 2 C3.34 2 2.68 2 2 2 C2 3.98 2 5.96 2 8 C1.01 8 0.02 8 -1 8 C-1.33 8.66 -1.66 9.32 -2 10 C-2.66 7.69 -3.32 5.38 -4 3 C-2.68 3 -1.36 3 0 3 C0 2.01 0 1.02 0 0 Z " fill="#EBD347" transform="translate(456,114)"/>
<path d="M0 0 C0.33 0.66 0.66 1.32 1 2 C1.99 2.33 2.98 2.66 4 3 C1.61042731 6.24299151 -0.2047869 8.50902342 -4 10 C-4.33 8.68 -4.66 7.36 -5 6 C-4.34 6 -3.68 6 -3 6 C-2.01 4.02 -1.02 2.04 0 0 Z " fill="#276469" transform="translate(56,344)"/>
<path d="M0 0 C0.66 0 1.32 0 2 0 C0.7677699 4.07583802 -0.77552173 7.38522281 -3 11 C-3.69822617 12.65369357 -4.37498605 14.31727014 -5 16 C-5.33 16 -5.66 16 -6 16 C-6.22036864 12.14354879 -5.60355101 9.50776784 -4 6 C-3.34 6 -2.68 6 -2 6 C-2 5.01 -2 4.02 -2 3 C-1.34 3 -0.68 3 0 3 C0 2.01 0 1.02 0 0 Z " fill="#23513B" transform="translate(449,234)"/>
<path d="M0 0 C0.66 0 1.32 0 2 0 C1.1875 2.9375 1.1875 2.9375 0 6 C-0.99 6.33 -1.98 6.66 -3 7 C-4.20882096 9.00016466 -4.20882096 9.00016466 -5 11 C-5.125 7.625 -5.125 7.625 -5 4 C-4.34 3.34 -3.68 2.68 -3 2 C-2.01 2 -1.02 2 0 2 C0 1.34 0 0.68 0 0 Z " fill="#EDDE4C" transform="translate(543,121)"/>
<path d="M0 0 C0.33 0 0.66 0 1 0 C0.67 2.97 0.34 5.94 0 9 C-0.66 9 -1.32 9 -2 9 C-2 9.66 -2 10.32 -2 11 C-1.34 11.33 -0.68 11.66 0 12 C-1.65 12 -3.3 12 -5 12 C-3.68938409 7.76570244 -2.05643741 3.92592596 0 0 Z " fill="#D7D55F" transform="translate(446,244)"/>
<path d="M0 0 C3.1611016 3.1611016 3.38812741 3.5561582 3.6875 7.6875 C3.75324219 8.49574219 3.81898438 9.30398437 3.88671875 10.13671875 C3.92410156 10.75160156 3.96148437 11.36648437 4 12 C2.68 12 1.36 12 0 12 C0 8.04 0 4.08 0 0 Z " fill="#11514F" transform="translate(505,219)"/>
<path d="M0 0 C0.33 0 0.66 0 1 0 C1.3636198 4.24223102 0.5393228 6.58168085 -2 10 C-2.66 10 -3.32 10 -4 10 C-4.33 10.66 -4.66 11.32 -5 12 C-6 9 -6 9 -4.5625 5.8125 C-4.046875 4.884375 -3.53125 3.95625 -3 3 C-2.34 3 -1.68 3 -1 3 C-0.67 2.01 -0.34 1.02 0 0 Z " fill="#E1D44D" transform="translate(507,129)"/>
<path d="M0 0 C2.125 0.9375 2.125 0.9375 4 2 C3.071875 2.598125 2.14375 3.19625 1.1875 3.8125 C-1.20254718 5.45272845 -3.08470253 6.8718917 -5 9 C-5.33 7.68 -5.66 6.36 -6 5 C-4.68 4.67 -3.36 4.34 -2 4 C-2 3.01 -2 2.02 -2 1 C-1.34 0.67 -0.68 0.34 0 0 Z " fill="#3C6E71" transform="translate(37,364)"/>
<path d="M0 0 C0.33 0 0.66 0 1 0 C1.02578125 0.71285156 1.0515625 1.42570313 1.078125 2.16015625 C1.51701597 9.57142873 2.59781051 14.59781051 8 20 C5.25362183 19.62118922 4.19950942 19.22167713 2.3125 17.125 C-0.05401732 13.29349577 -0.10987679 10.21854113 -0.0625 5.8125 C-0.05347656 4.72582031 -0.04445313 3.63914063 -0.03515625 2.51953125 C-0.02355469 1.68808594 -0.01195312 0.85664063 0 0 Z " fill="#234931" transform="translate(306,208)"/>
<path d="M0 0 C2 3 2 3 2 6 C2.66 6 3.32 6 4 6 C4.66 6.66 5.32 7.32 6 8 C6.66 8 7.32 8 8 8 C7.67 9.98 7.34 11.96 7 14 C3.66144681 11.00681438 1.72601391 8.14243338 0 4 C0 2.68 0 1.36 0 0 Z " fill="#DEDA60" transform="translate(277,230)"/>
<path d="M0 0 C0.99020864 3.20142644 1.0200144 5.79985601 0.6875 9.125 C0.60886719 9.99382812 0.53023438 10.86265625 0.44921875 11.7578125 C0 14 0 14 -2 16 C-2 15.34 -2 14.68 -2 14 C-2.66 14 -3.32 14 -4 14 C-2.85248597 9.2460133 -1.61737483 4.62107093 0 0 Z " fill="#2B5A3E" transform="translate(288,118)"/>
<path d="M0 0 C0.99 0.33 1.98 0.66 3 1 C3.765625 2.92578125 3.765625 2.92578125 4.25 5.3125 C4.50523437 6.48232422 4.50523437 6.48232422 4.765625 7.67578125 C5.00771617 10.07651867 4.7310448 11.71809588 4 14 C2.30566082 10.9530371 1.50532888 8.17178534 0.875 4.75 C0.70742187 3.85796875 0.53984375 2.9659375 0.3671875 2.046875 C0.18542969 1.03367187 0.18542969 1.03367187 0 0 Z " fill="#D9D363" transform="translate(199,114)"/>
<path d="M0 0 C0.33 0 0.66 0 1 0 C1 2.64 1 5.28 1 8 C-0.65 8.66 -2.3 9.32 -4 10 C-3.29445932 6.33118845 -1.72264494 3.29549466 0 0 Z " fill="#EAD957" transform="translate(461,214)"/>
<path d="M0 0 C0.99 0.33 1.98 0.66 3 1 C-2.01372252 4.52913975 -5.83543922 6.61471495 -12 7 C-11.360625 6.71125 -10.72125 6.4225 -10.0625 6.125 C-7.84793921 5.17176549 -7.84793921 5.17176549 -7 3 C-4.67843403 2.59270772 -2.3431213 2.25561323 0 2 C0 1.34 0 0.68 0 0 Z " fill="#E0DA60" transform="translate(349,249)"/>
<path d="M0 0 C0.99 0 1.98 0 3 0 C2.33035714 7.09821429 2.33035714 7.09821429 -1 10 C-1.02689216 8.52093108 -1.04634621 7.04172517 -1.0625 5.5625 C-1.07410156 4.73878906 -1.08570313 3.91507813 -1.09765625 3.06640625 C-1 1 -1 1 0 0 Z " fill="#155145" transform="translate(452,224)"/>
<path d="M0 0 C2.475 0.99 2.475 0.99 5 2 C3.9024777 4.99324263 3.32317108 5.84610901 0.375 7.25 C-0.40875 7.4975 -1.1925 7.745 -2 8 C-1.505 6.2984375 -1.505 6.2984375 -1 4.5625 C0.04504273 1.45623361 0.04504273 1.45623361 0 0 Z " fill="#E0D357" transform="translate(354,241)"/>
<path d="M0 0 C0.66 0.33 1.32 0.66 2 1 C1.2116391 2.77230751 0.41918653 4.54279534 -0.375 6.3125 C-0.81585938 7.29863281 -1.25671875 8.28476563 -1.7109375 9.30078125 C-3 12 -3 12 -5 15 C-4.91253716 13.56138706 -4.80434652 12.12402492 -4.6875 10.6875 C-4.62949219 9.88699219 -4.57148438 9.08648437 -4.51171875 8.26171875 C-3.90786477 5.59277637 -2.97744031 4.8147717 -1 3 C-0.67 2.01 -0.34 1.02 0 0 Z " fill="#D1D163" transform="translate(487,230)"/>
<path d="M0 0 C1 3 1 3 0.00390625 5.26171875 C-0.47175781 6.06222656 -0.94742188 6.86273438 -1.4375 7.6875 C-1.91058594 8.49574219 -2.38367188 9.30398437 -2.87109375 10.13671875 C-3.24363281 10.75160156 -3.61617187 11.36648437 -4 12 C-5.33332095 9.3333581 -4.67102033 7.83319697 -4 5 C-3.34 5 -2.68 5 -2 5 C-2 3.68 -2 2.36 -2 1 C-1.34 0.67 -0.68 0.34 0 0 Z " fill="#1D4E40" transform="translate(518,100)"/>
<path d="M0 0 C0.66 0.33 1.32 0.66 2 1 C-0.475 6.94 -0.475 6.94 -3 13 C-3.33 13 -3.66 13 -4 13 C-4 11.02 -4 9.04 -4 7 C-3.34 7 -2.68 7 -2 7 C-2.04125 6.21625 -2.0825 5.4325 -2.125 4.625 C-2 2 -2 2 0 0 Z " fill="#21513A" transform="translate(263,97)"/>
<path d="M0 0 C2.25245881 2.68841859 3.88213958 4.64641875 5 8 C3.35 8 1.7 8 0 8 C-1.43088528 5.13822943 -0.59991697 3.06624227 0 0 Z " fill="#205649" transform="translate(457,129)"/>
<path d="M0 0 C6.875 3.75 6.875 3.75 8 6 C7.01 6 6.02 6 5 6 C5 5.34 5 4.68 5 4 C3.35 4.33 1.7 4.66 0 5 C-0.33 4.01 -0.66 3.02 -1 2 C-0.67 1.34 -0.34 0.68 0 0 Z " fill="#49787C" transform="translate(605,17)"/>
<path d="M0 0 C1.98 0.495 1.98 0.495 4 1 C2.625 2.5 2.625 2.5 1 4 C0.34 4 -0.32 4 -1 4 C-0.67 2.68 -0.34 1.36 0 0 Z M-2 4 C0 6 0 6 0.125 9.125 C0.08375 10.07375 0.0425 11.0225 0 12 C-2 10 -2 10 -2.125 6.875 C-2.08375 5.92625 -2.0425 4.9775 -2 4 Z " fill="#165B4C" transform="translate(549,224)"/>
<path d="M0 0 C0.66 0.33 1.32 0.66 2 1 C-0.475 6.94 -0.475 6.94 -3 13 C-3.33 13 -3.66 13 -4 13 C-4.125 6.25 -4.125 6.25 -3 4 C-2.34 4 -1.68 4 -1 4 C-0.67 2.68 -0.34 1.36 0 0 Z " fill="#E2DC64" transform="translate(494,214)"/>
<path d="M0 0 C0.99 0 1.98 0 3 0 C3.38922918 1.28745036 3.76098036 2.58019597 4.125 3.875 C4.33382812 4.59429687 4.54265625 5.31359375 4.7578125 6.0546875 C4.83773437 6.69664062 4.91765625 7.33859375 5 8 C4.34 8.66 3.68 9.32 3 10 C2.01 6.7 1.02 3.4 0 0 Z " fill="#075357" transform="translate(538,209)"/>
<path d="M0 0 C1.1135821 3.34074631 0.94368586 3.83573301 -0.3125 6.9375 C-0.57675781 7.60652344 -0.84101563 8.27554688 -1.11328125 8.96484375 C-2.00696539 11.01598665 -2.98001397 13.0090229 -4 15 C-3.91245449 13.24908981 -3.80426627 11.49920449 -3.6875 9.75 C-3.62949219 8.77546875 -3.57148438 7.8009375 -3.51171875 6.796875 C-2.95363476 3.74658389 -2.03630224 2.29288724 0 0 Z " fill="#28523A" transform="translate(252,128)"/>
<path d="M0 0 C0.33 1.32 0.66 2.64 1 4 C2.32 3.67 3.64 3.34 5 3 C4.34 4.65 3.68 6.3 3 8 C1.68 7.67 0.36 7.34 -1 7 C-0.67 4.69 -0.34 2.38 0 0 Z " fill="#08504F" transform="translate(297,96)"/>
<path d="M0 0 C0.66 0.66 1.32 1.32 2 2 C1.875 4 1.875 4 1 6 C-1.0625 7.25 -1.0625 7.25 -3 8 C-1.125 1.125 -1.125 1.125 0 0 Z " fill="#225941" transform="translate(492,223)"/>
<path d="M0 0 C0.99 0 1.98 0 3 0 C1.71480435 2.86697492 0.42870746 4.97607712 -2 7 C-2.66 7 -3.32 7 -4 7 C-4 6.01 -4 5.02 -4 4 C-2.68 3.67 -1.36 3.34 0 3 C0 2.01 0 1.02 0 0 Z " fill="#36666B" transform="translate(68,336)"/>
<path d="M0 0 C0.99 0 1.98 0 3 0 C3 0.66 3 1.32 3 2 C3.66 2.33 4.32 2.66 5 3 C3.68 3.99 2.36 4.98 1 6 C0.34 4.35 -0.32 2.7 -1 1 C-0.67 0.67 -0.34 0.34 0 0 Z " fill="#26646B" transform="translate(611,317)"/>
<path d="M0 0 C0.66 0.66 1.32 1.32 2 2 C0.35 4.31 -1.3 6.62 -3 9 C-4 6 -4 6 -3.1875 3.375 C-2 1 -2 1 0 0 Z " fill="#3D6C6F" transform="translate(620,310)"/>
<path d="M0 0 C4.455 0.99 4.455 0.99 9 2 C9 2.66 9 3.32 9 4 C9.66 4.33 10.32 4.66 11 5 C4.6 4.50769231 4.6 4.50769231 1.5625 1.9375 C1.046875 1.298125 0.53125 0.65875 0 0 Z " fill="#D8D565" transform="translate(292,251)"/>
<path d="M0 0 C2.00720923 0.28674418 4.0085944 0.61866701 6 1 C4.68 2.65 3.36 4.3 2 6 C0 5 0 5 -0.6875 3 C-0.790625 2.34 -0.89375 1.68 -1 1 C-0.67 0.67 -0.34 0.34 0 0 Z " fill="#42777C" transform="translate(42,357)"/>
<path d="M0 0 C1.13643966 3.40931897 0.86747764 4.00335456 -0.4375 7.1875 C-0.86869141 8.26064453 -0.86869141 8.26064453 -1.30859375 9.35546875 C-1.53675781 9.89816406 -1.76492188 10.44085938 -2 11 C-2.33 11 -2.66 11 -3 11 C-2.67 8.03 -2.34 5.06 -2 2 C-1.34 2 -0.68 2 0 2 C0 1.34 0 0.68 0 0 Z " fill="#E2DC62" transform="translate(287,118)"/>
<path d="M0 0 C1.39195915 4.17587745 -0.17676781 6.13474776 -2 10 C-2.66 10 -3.32 10 -4 10 C-2.8905928 6.51329166 -1.73662334 3.22515763 0 0 Z " fill="#315741" transform="translate(482,245)"/>
<path d="M0 0 C0.66 0 1.32 0 2 0 C2.66 1.98 3.32 3.96 4 6 C3.34 6.66 2.68 7.32 2 8 C1.87625 7.360625 1.7525 6.72125 1.625 6.0625 C1.315625 5.0415625 1.315625 5.0415625 1 4 C0.34 3.67 -0.32 3.34 -1 3 C-0.67 2.01 -0.34 1.02 0 0 Z " fill="#E3CE50" transform="translate(245,150)"/>
<path d="M0 0 C0.33 0 0.66 0 1 0 C1.36923077 5.53846154 1.36923077 5.53846154 -0.5 7.875 C-1.2425 8.431875 -1.2425 8.431875 -2 9 C-2.25 3.375 -2.25 3.375 0 0 Z " fill="#1F5245" transform="translate(540,132)"/>
<path d="M0 0 C0.66 0.66 1.32 1.32 2 2 C-0.33333333 4.33333333 -2.66666667 6.66666667 -5 9 C-3.375 2.25 -3.375 2.25 0 0 Z " fill="#DBD158" transform="translate(514,115)"/>
<path d="M0 0 C1.99097846 2.98646769 2.94124926 5.59687262 4 9 C3.01 9.495 3.01 9.495 2 10 C2 9.34 2 8.68 2 8 C1.34 8 0.68 8 0 8 C0 5.36 0 2.72 0 0 Z " fill="#D1CC5C" transform="translate(481,100)"/>
<path d="M0 0 C2.50298434 2.93828597 3.46930939 5.17902761 4 9 C3.34 9 2.68 9 2 9 C0.14223235 5.86501708 -0.20140476 3.62528568 0 0 Z " fill="#235040" transform="translate(501,210)"/>
<path d="M0 0 C0.66 0 1.32 0 2 0 C2.33 1.98 2.66 3.96 3 6 C1.68 6.33 0.36 6.66 -1 7 C-0.67 4.69 -0.34 2.38 0 0 Z " fill="#D8D056" transform="translate(237,136)"/>
<path d="M0 0 C1.52299523 2.93720508 2.80100302 5.9168649 4 9 C1.525 8.01 1.525 8.01 -1 7 C-0.67 4.69 -0.34 2.38 0 0 Z " fill="#1F5540" transform="translate(453,120)"/>
<path d="M0 0 C0.99 0 1.98 0 3 0 C3.66 2.31 4.32 4.62 5 7 C4.01 7.495 4.01 7.495 3 8 C0 2.25 0 2.25 0 0 Z " fill="#CDC95F" transform="translate(444,101)"/>
<path d="M0 0 C0.99 0.33 1.98 0.66 3 1 C3.625 3.875 3.625 3.875 4 7 C3.34 7.66 2.68 8.32 2 9 C1.34 6.03 0.68 3.06 0 0 Z " fill="#E2D552" transform="translate(196,105)"/>
</svg>
